M48
; DRILL file {KiCad 7.0.5} date Sun Oct 29 18:10:29 2023
; FORMAT={-:-/ absolute / inch / decimal}
; #@! TF.CreationDate,2023-10-29T18:10:29+11:00
; #@! TF.GenerationSoftware,Kicad,Pcbnew,7.0.5
; #@! TF.FileFunction,Plated,1,2,PTH
FMAT,2
INCH
; #@! TA.AperFunction,Plated,PTH,ComponentDrill
T1C0.0276
; #@! TA.AperFunction,Plated,PTH,ComponentDrill
T2C0.0315
; #@! TA.AperFunction,Plated,PTH,ViaDrill
T3C0.0394
; #@! TA.AperFunction,Plated,PTH,ComponentDrill
T4C0.0394
; #@! TA.AperFunction,Plated,PTH,ComponentDrill
T5C0.0433
; #@! TA.AperFunction,Plated,PTH,ComponentDrill
T6C0.0472
%
G90
G05
T1
X5.2461Y-3.5856
X5.2461Y-3.8856
T2
X5.5543Y-3.5841
X5.5543Y-3.6841
X5.5543Y-3.7841
X5.5543Y-3.8841
X5.5543Y-3.9841
X5.5543Y-4.0841
X5.5543Y-4.1841
X5.5543Y-4.2841
X5.5543Y-4.3841
X5.5543Y-4.4841
X5.5591Y-4.6927
X5.8543Y-3.5841
X5.8543Y-3.6841
X5.8543Y-3.7841
X5.8543Y-3.8841
X5.8543Y-3.9841
X5.8543Y-4.0841
X5.8543Y-4.1841
X5.8543Y-4.2841
X5.8543Y-4.3841
X5.8543Y-4.4841
X5.8543Y-4.6927
X6.0512Y-3.7008
X6.0512Y-3.9961
X6.248Y-4.6927
X6.2551Y-3.5841
X6.2551Y-3.6841
X6.2551Y-3.7841
X6.2551Y-3.8841
X6.2551Y-3.9841
X6.2551Y-4.0841
X6.2551Y-4.1841
X6.2551Y-4.2841
X6.2551Y-4.3841
X6.2551Y-4.4841
X6.5433Y-4.6927
X6.5551Y-3.5841
X6.5551Y-3.6841
X6.5551Y-3.7841
X6.5551Y-3.8841
X6.5551Y-3.9841
X6.5551Y-4.0841
X6.5551Y-4.1841
X6.5551Y-4.2841
X6.5551Y-4.3841
X6.5551Y-4.4841
X6.9495Y-4.5943
X7.0479Y-4.5943
T3
X4.1785Y-4.8409
X4.2827Y-4.7959
X4.3898Y-4.7835
X4.7441Y-4.8917
X4.8425Y-4.8917
X4.9409Y-4.8917
X5.0394Y-4.8917
X5.1378Y-4.8917
X5.1703Y-4.439
X5.2362Y-4.8917
X5.2559Y-4.0354
X5.3445Y-3.7402
X5.3474Y-3.8386
X5.4035Y-3.937
X5.4035Y-4.4882
X5.4035Y-4.8917
X5.4528Y-4.1339
X5.502Y-4.8917
X5.6496Y-3.3858
X5.7579Y-3.4941
X5.7972Y-4.8819
X5.8858Y-4.8917
X5.9941Y-4.8917
X6.0531Y-4.1437
X6.3484Y-3.3957
X6.7028Y-3.3957
X6.7421Y-4.7933
X6.8406Y-4.3898
X6.8406Y-4.7933
X6.8504Y-3.2874
X6.8504Y-3.435
X6.939Y-4.7933
X6.9409Y-4.3898
T4
X5.1476Y-3.1573
X5.1476Y-3.2573
X5.2476Y-3.1573
X5.2476Y-3.2573
X5.3476Y-3.1573
X5.3476Y-3.2573
X5.4476Y-3.1573
X5.4476Y-3.2573
X5.5476Y-3.1573
X5.5476Y-3.2573
X5.6476Y-3.1573
X5.6476Y-3.2573
X5.7476Y-3.1573
X5.7476Y-3.2573
X5.8476Y-3.1573
X5.8476Y-3.2573
X5.9476Y-3.1573
X5.9476Y-3.2573
X6.0476Y-3.1573
X6.0476Y-3.2573
X6.1476Y-3.1573
X6.1476Y-3.2573
X6.2476Y-3.1573
X6.2476Y-3.2573
X6.3476Y-3.1573
X6.3476Y-3.2573
T5
X4.8488Y-4.3868
X4.9488Y-4.3868
X5.0488Y-4.3868
T6
X4.252Y-4.5943
X5.052Y-4.5943
T0
M30
