%TF.GenerationSoftware,KiCad,Pcbnew,7.0.5*%
%TF.CreationDate,2023-10-29T18:10:31+11:00*%
%TF.ProjectId,Sega DS-16,53656761-2044-4532-9d31-362e6b696361,rev?*%
%TF.SameCoordinates,Original*%
%TF.FileFunction,Soldermask,Bot*%
%TF.FilePolarity,Negative*%
%FSLAX46Y46*%
G04 Gerber Fmt 4.6, Leading zero omitted, Abs format (unit mm)*
G04 Created by KiCad (PCBNEW 7.0.5) date 2023-10-29 18:10:31*
%MOMM*%
%LPD*%
G01*
G04 APERTURE LIST*
%ADD10C,1.600000*%
%ADD11O,1.600000X1.600000*%
%ADD12R,1.600000X1.600000*%
%ADD13C,2.400000*%
%ADD14O,2.400000X2.400000*%
%ADD15C,6.096000*%
%ADD16R,83.852500X8.100000*%
%ADD17R,1.905000X6.858000*%
%ADD18C,1.400000*%
%ADD19O,1.400000X1.400000*%
%ADD20O,3.500000X3.500000*%
%ADD21R,1.905000X2.000000*%
%ADD22O,1.905000X2.000000*%
%ADD23R,1.700000X1.700000*%
%ADD24O,1.700000X1.700000*%
G04 APERTURE END LIST*
D10*
%TO.C,C4*%
X141200000Y-119195000D03*
D11*
X148700000Y-119195000D03*
%TD*%
D12*
%TO.C,IC1*%
X166500000Y-113895000D03*
D11*
X166500000Y-111355000D03*
X166500000Y-108815000D03*
X166500000Y-106275000D03*
X166500000Y-103735000D03*
X166500000Y-101195000D03*
X166500000Y-98655000D03*
X166500000Y-96115000D03*
X166500000Y-93575000D03*
X166500000Y-91035000D03*
X158880000Y-91035000D03*
X158880000Y-93575000D03*
X158880000Y-96115000D03*
X158880000Y-98655000D03*
X158880000Y-101195000D03*
X158880000Y-103735000D03*
X158880000Y-106275000D03*
X158880000Y-108815000D03*
X158880000Y-111355000D03*
X158880000Y-113895000D03*
%TD*%
D13*
%TO.C,R2*%
X108000000Y-116695000D03*
D14*
X128320000Y-116695000D03*
%TD*%
D15*
%TO.C,J1*%
X111858000Y-100695000D03*
D16*
X145516750Y-130863000D03*
D15*
X181200000Y-100695000D03*
D17*
X106143000Y-130413000D03*
X108683000Y-130413000D03*
X111223000Y-130413000D03*
X113763000Y-130413000D03*
X116303000Y-130413000D03*
X118843000Y-130413000D03*
X121383000Y-130413000D03*
X123923000Y-130413000D03*
X126463000Y-130413000D03*
X129003000Y-130413000D03*
X131543000Y-130413000D03*
X134083000Y-130413000D03*
X136623000Y-130413000D03*
X139163000Y-130413000D03*
X141703000Y-130413000D03*
X144243000Y-130413000D03*
X146783000Y-130413000D03*
X149323000Y-130413000D03*
X151863000Y-130413000D03*
X154403000Y-130413000D03*
X156943000Y-130413000D03*
X159483000Y-130413000D03*
X162023000Y-130413000D03*
X164563000Y-130413000D03*
X167103000Y-130413000D03*
X169643000Y-130413000D03*
X172183000Y-130413000D03*
X174723000Y-130413000D03*
X177263000Y-130413000D03*
X179803000Y-130413000D03*
X182343000Y-130413000D03*
X184883000Y-130413000D03*
%TD*%
D18*
%TO.C,R1*%
X133250000Y-91075000D03*
D19*
X133250000Y-98695000D03*
%TD*%
D12*
%TO.C,IC2*%
X148700000Y-113895000D03*
D11*
X148700000Y-111355000D03*
X148700000Y-108815000D03*
X148700000Y-106275000D03*
X148700000Y-103735000D03*
X148700000Y-101195000D03*
X148700000Y-98655000D03*
X148700000Y-96115000D03*
X148700000Y-93575000D03*
X148700000Y-91035000D03*
X141080000Y-91035000D03*
X141080000Y-93575000D03*
X141080000Y-96115000D03*
X141080000Y-98655000D03*
X141080000Y-101195000D03*
X141080000Y-103735000D03*
X141080000Y-106275000D03*
X141080000Y-108815000D03*
X141080000Y-111355000D03*
X141080000Y-113895000D03*
%TD*%
D10*
%TO.C,C2*%
X153700000Y-101500000D03*
D11*
X153700000Y-94000000D03*
%TD*%
D12*
%TO.C,C1*%
X176517621Y-116695000D03*
D10*
X179017621Y-116695000D03*
%TD*%
D20*
%TO.C,TR1*%
X125700000Y-94765000D03*
D21*
X123160000Y-111425000D03*
D22*
X125700000Y-111425000D03*
X128240000Y-111425000D03*
%TD*%
D10*
%TO.C,C3*%
X158700000Y-119195000D03*
D11*
X166200000Y-119195000D03*
%TD*%
D23*
%TO.C,J2*%
X161230000Y-82735000D03*
D24*
X161230000Y-80195000D03*
X158690000Y-82735000D03*
X158690000Y-80195000D03*
X156150000Y-82735000D03*
X156150000Y-80195000D03*
X153610000Y-82735000D03*
X153610000Y-80195000D03*
X151070000Y-82735000D03*
X151070000Y-80195000D03*
X148530000Y-82735000D03*
X148530000Y-80195000D03*
X145990000Y-82735000D03*
X145990000Y-80195000D03*
X143450000Y-82735000D03*
X143450000Y-80195000D03*
X140910000Y-82735000D03*
X140910000Y-80195000D03*
X138370000Y-82735000D03*
X138370000Y-80195000D03*
X135830000Y-82735000D03*
X135830000Y-80195000D03*
X133290000Y-82735000D03*
X133290000Y-80195000D03*
X130750000Y-82735000D03*
X130750000Y-80195000D03*
%TD*%
M02*
