%TF.GenerationSoftware,KiCad,Pcbnew,7.0.5*%
%TF.CreationDate,2023-10-29T18:10:31+11:00*%
%TF.ProjectId,Sega DS-16,53656761-2044-4532-9d31-362e6b696361,rev?*%
%TF.SameCoordinates,Original*%
%TF.FileFunction,Copper,L1,Top*%
%TF.FilePolarity,Positive*%
%FSLAX46Y46*%
G04 Gerber Fmt 4.6, Leading zero omitted, Abs format (unit mm)*
G04 Created by KiCad (PCBNEW 7.0.5) date 2023-10-29 18:10:31*
%MOMM*%
%LPD*%
G01*
G04 APERTURE LIST*
%TA.AperFunction,ComponentPad*%
%ADD10C,1.600000*%
%TD*%
%TA.AperFunction,ComponentPad*%
%ADD11O,1.600000X1.600000*%
%TD*%
%TA.AperFunction,ComponentPad*%
%ADD12R,1.600000X1.600000*%
%TD*%
%TA.AperFunction,ComponentPad*%
%ADD13C,2.400000*%
%TD*%
%TA.AperFunction,ComponentPad*%
%ADD14O,2.400000X2.400000*%
%TD*%
%TA.AperFunction,SMDPad,CuDef*%
%ADD15R,1.905000X6.858000*%
%TD*%
%TA.AperFunction,ComponentPad*%
%ADD16C,1.400000*%
%TD*%
%TA.AperFunction,ComponentPad*%
%ADD17O,1.400000X1.400000*%
%TD*%
%TA.AperFunction,ComponentPad*%
%ADD18R,1.905000X2.000000*%
%TD*%
%TA.AperFunction,ComponentPad*%
%ADD19O,1.905000X2.000000*%
%TD*%
%TA.AperFunction,ComponentPad*%
%ADD20R,1.700000X1.700000*%
%TD*%
%TA.AperFunction,ComponentPad*%
%ADD21O,1.700000X1.700000*%
%TD*%
%TA.AperFunction,ViaPad*%
%ADD22C,2.000000*%
%TD*%
%TA.AperFunction,Conductor*%
%ADD23C,1.500000*%
%TD*%
%TA.AperFunction,Conductor*%
%ADD24C,0.250000*%
%TD*%
G04 APERTURE END LIST*
D10*
%TO.P,C4,1*%
%TO.N,+5V*%
X141200000Y-119195000D03*
D11*
%TO.P,C4,2*%
%TO.N,GND*%
X148700000Y-119195000D03*
%TD*%
D12*
%TO.P,IC1,1,1OE*%
%TO.N,GND*%
X166500000Y-113895000D03*
D11*
%TO.P,IC1,2,1A0*%
%TO.N,/A23*%
X166500000Y-111355000D03*
%TO.P,IC1,3,2Y0*%
%TO.N,/A2Y0*%
X166500000Y-108815000D03*
%TO.P,IC1,4,1A1*%
%TO.N,/A22*%
X166500000Y-106275000D03*
%TO.P,IC1,5,2Y1*%
%TO.N,/A2Y1*%
X166500000Y-103735000D03*
%TO.P,IC1,6,1A2*%
%TO.N,/A21*%
X166500000Y-101195000D03*
%TO.P,IC1,7,2Y2*%
%TO.N,/A2Y2*%
X166500000Y-98655000D03*
%TO.P,IC1,8,1A3*%
%TO.N,GND*%
X166500000Y-96115000D03*
%TO.P,IC1,9,2Y3*%
%TO.N,unconnected-(IC1-2Y3-Pad9)*%
X166500000Y-93575000D03*
%TO.P,IC1,10,GND*%
%TO.N,GND*%
X166500000Y-91035000D03*
%TO.P,IC1,11,2A3*%
X158880000Y-91035000D03*
%TO.P,IC1,12,1Y3*%
%TO.N,unconnected-(IC1-1Y3-Pad12)*%
X158880000Y-93575000D03*
%TO.P,IC1,13,2A2*%
%TO.N,/A20*%
X158880000Y-96115000D03*
%TO.P,IC1,14,1Y2*%
%TO.N,/A1Y2*%
X158880000Y-98655000D03*
%TO.P,IC1,15,2A1*%
%TO.N,/A19*%
X158880000Y-101195000D03*
%TO.P,IC1,16,1Y1*%
%TO.N,/A1Y1*%
X158880000Y-103735000D03*
%TO.P,IC1,17,2A0*%
%TO.N,/A18*%
X158880000Y-106275000D03*
%TO.P,IC1,18,1Y0*%
%TO.N,/A1Y0*%
X158880000Y-108815000D03*
%TO.P,IC1,19,2OE*%
%TO.N,GND*%
X158880000Y-111355000D03*
%TO.P,IC1,20,VCC*%
%TO.N,+5V*%
X158880000Y-113895000D03*
%TD*%
D13*
%TO.P,R2,1*%
%TO.N,/~{MRES}*%
X108000000Y-116695000D03*
D14*
%TO.P,R2,2*%
%TO.N,Net-(TR1-C)*%
X128320000Y-116695000D03*
%TD*%
D15*
%TO.P,J1,B1,Pin_b1*%
%TO.N,/AUL*%
X106143000Y-130413000D03*
%TO.P,J1,B2,Pin_b2*%
%TO.N,/~{MRES}*%
X108683000Y-130413000D03*
%TO.P,J1,B3,Pin_b3*%
%TO.N,/AUR*%
X111223000Y-130413000D03*
%TO.P,J1,B4,Pin_b4*%
%TO.N,/A9*%
X113763000Y-130413000D03*
%TO.P,J1,B5,Pin_b5*%
%TO.N,/A10*%
X116303000Y-130413000D03*
%TO.P,J1,B6,Pin_b6*%
%TO.N,/A18*%
X118843000Y-130413000D03*
%TO.P,J1,B7,Pin_b7*%
%TO.N,/A19*%
X121383000Y-130413000D03*
%TO.P,J1,B8,Pin_b8*%
%TO.N,/A20*%
X123923000Y-130413000D03*
%TO.P,J1,B9,Pin_b9*%
%TO.N,/A21*%
X126463000Y-130413000D03*
%TO.P,J1,B10,Pin_b10*%
%TO.N,/A22*%
X129003000Y-130413000D03*
%TO.P,J1,B11,Pin_b11*%
%TO.N,/A23*%
X131543000Y-130413000D03*
%TO.P,J1,B12,Pin_b12*%
%TO.N,/~{YS}*%
X134083000Y-130413000D03*
%TO.P,J1,B13,Pin_b13*%
%TO.N,/~{VSYNC}*%
X136623000Y-130413000D03*
%TO.P,J1,B14,Pin_b14*%
%TO.N,/~{HSYNC}*%
X139163000Y-130413000D03*
%TO.P,J1,B15,Pin_b15*%
%TO.N,/EDCLK*%
X141703000Y-130413000D03*
%TO.P,J1,B16,Pin_b16*%
%TO.N,/~{CAS0}*%
X144243000Y-130413000D03*
%TO.P,J1,B17,Pin_b17*%
%TO.N,/~{CEO}*%
X146783000Y-130413000D03*
%TO.P,J1,B18,Pin_b18*%
%TO.N,/~{AS}*%
X149323000Y-130413000D03*
%TO.P,J1,B19,Pin_b19*%
%TO.N,/VCLK*%
X151863000Y-130413000D03*
%TO.P,J1,B20,Pin_b20*%
%TO.N,/~{DTACK}*%
X154403000Y-130413000D03*
%TO.P,J1,B21,Pin_b21*%
%TO.N,/~{CAS2}*%
X156943000Y-130413000D03*
%TO.P,J1,B22,Pin_b22*%
%TO.N,/D15*%
X159483000Y-130413000D03*
%TO.P,J1,B23,Pin_b23*%
%TO.N,/D14*%
X162023000Y-130413000D03*
%TO.P,J1,B24,Pin_b24*%
%TO.N,/D13*%
X164563000Y-130413000D03*
%TO.P,J1,B25,Pin_b25*%
%TO.N,/D12*%
X167103000Y-130413000D03*
%TO.P,J1,B26,Pin_b26*%
%TO.N,/~{ASEL}*%
X169643000Y-130413000D03*
%TO.P,J1,B27,Pin_b27*%
%TO.N,/~{VRES}*%
X172183000Y-130413000D03*
%TO.P,J1,B28,Pin_b28*%
%TO.N,/~{LWR}*%
X174723000Y-130413000D03*
%TO.P,J1,B29,Pin_b29*%
%TO.N,/~{UWR}*%
X177263000Y-130413000D03*
%TO.P,J1,B30,Pin_b30*%
%TO.N,+5V*%
X179803000Y-130413000D03*
%TO.P,J1,B31,Pin_b31*%
%TO.N,/~{TIME}*%
X182343000Y-130413000D03*
%TO.P,J1,B32,Pin_b32*%
%TO.N,/~{CART}*%
X184883000Y-130413000D03*
%TD*%
D16*
%TO.P,R1,1*%
%TO.N,Net-(IC2-2Y3)*%
X133250000Y-91075000D03*
D17*
%TO.P,R1,2*%
%TO.N,Net-(TR1-B)*%
X133250000Y-98695000D03*
%TD*%
D12*
%TO.P,IC2,1,1OE*%
%TO.N,GND*%
X148700000Y-113895000D03*
D11*
%TO.P,IC2,2,1A0*%
%TO.N,/~{TIME}*%
X148700000Y-111355000D03*
%TO.P,IC2,3,2Y0*%
%TO.N,/B2Y0*%
X148700000Y-108815000D03*
%TO.P,IC2,4,1A1*%
%TO.N,GND*%
X148700000Y-106275000D03*
%TO.P,IC2,5,2Y1*%
%TO.N,/B2Y1*%
X148700000Y-103735000D03*
%TO.P,IC2,6,1A2*%
%TO.N,GND*%
X148700000Y-101195000D03*
%TO.P,IC2,7,2Y2*%
%TO.N,/B2Y2*%
X148700000Y-98655000D03*
%TO.P,IC2,8,1A3*%
%TO.N,/~{CEO}*%
X148700000Y-96115000D03*
%TO.P,IC2,9,2Y3*%
%TO.N,Net-(IC2-2Y3)*%
X148700000Y-93575000D03*
%TO.P,IC2,10,GND*%
%TO.N,GND*%
X148700000Y-91035000D03*
%TO.P,IC2,11,2A3*%
%TO.N,/B2A3*%
X141080000Y-91035000D03*
%TO.P,IC2,12,1Y3*%
%TO.N,/B1Y3*%
X141080000Y-93575000D03*
%TO.P,IC2,13,2A2*%
%TO.N,/~{MRES}*%
X141080000Y-96115000D03*
%TO.P,IC2,14,1Y2*%
%TO.N,/B1Y2*%
X141080000Y-98655000D03*
%TO.P,IC2,15,2A1*%
%TO.N,GND*%
X141080000Y-101195000D03*
%TO.P,IC2,16,1Y1*%
%TO.N,/B1Y1*%
X141080000Y-103735000D03*
%TO.P,IC2,17,2A0*%
%TO.N,GND*%
X141080000Y-106275000D03*
%TO.P,IC2,18,1Y0*%
%TO.N,/B1Y0*%
X141080000Y-108815000D03*
%TO.P,IC2,19,2OE*%
%TO.N,GND*%
X141080000Y-111355000D03*
%TO.P,IC2,20,VCC*%
%TO.N,+5V*%
X141080000Y-113895000D03*
%TD*%
D10*
%TO.P,C2,1*%
%TO.N,GND*%
X153700000Y-101500000D03*
D11*
%TO.P,C2,2*%
X153700000Y-94000000D03*
%TD*%
D12*
%TO.P,C1,1*%
%TO.N,+5V*%
X176517621Y-116695000D03*
D10*
%TO.P,C1,2*%
%TO.N,GND*%
X179017621Y-116695000D03*
%TD*%
D18*
%TO.P,TR1,1,B*%
%TO.N,Net-(TR1-B)*%
X123160000Y-111425000D03*
D19*
%TO.P,TR1,2,C*%
%TO.N,Net-(TR1-C)*%
X125700000Y-111425000D03*
%TO.P,TR1,3,E*%
%TO.N,GND*%
X128240000Y-111425000D03*
%TD*%
D10*
%TO.P,C3,1*%
%TO.N,+5V*%
X158700000Y-119195000D03*
D11*
%TO.P,C3,2*%
%TO.N,GND*%
X166200000Y-119195000D03*
%TD*%
D20*
%TO.P,J2,1,Pin_1*%
%TO.N,GND*%
X161230000Y-82735000D03*
D21*
%TO.P,J2,2,Pin_2*%
%TO.N,/A2Y0*%
X161230000Y-80195000D03*
%TO.P,J2,3,Pin_3*%
%TO.N,GND*%
X158690000Y-82735000D03*
%TO.P,J2,4,Pin_4*%
%TO.N,/A2Y1*%
X158690000Y-80195000D03*
%TO.P,J2,5,Pin_5*%
%TO.N,GND*%
X156150000Y-82735000D03*
%TO.P,J2,6,Pin_6*%
%TO.N,/A2Y2*%
X156150000Y-80195000D03*
%TO.P,J2,7,Pin_7*%
%TO.N,GND*%
X153610000Y-82735000D03*
%TO.P,J2,8,Pin_8*%
%TO.N,/A1Y2*%
X153610000Y-80195000D03*
%TO.P,J2,9,Pin_9*%
%TO.N,GND*%
X151070000Y-82735000D03*
%TO.P,J2,10,Pin_10*%
%TO.N,/A1Y1*%
X151070000Y-80195000D03*
%TO.P,J2,11,Pin_11*%
%TO.N,GND*%
X148530000Y-82735000D03*
%TO.P,J2,12,Pin_12*%
%TO.N,/A1Y0*%
X148530000Y-80195000D03*
%TO.P,J2,13,Pin_13*%
%TO.N,GND*%
X145990000Y-82735000D03*
%TO.P,J2,14,Pin_14*%
%TO.N,/B2Y0*%
X145990000Y-80195000D03*
%TO.P,J2,15,Pin_15*%
%TO.N,GND*%
X143450000Y-82735000D03*
%TO.P,J2,16,Pin_16*%
%TO.N,/B2Y1*%
X143450000Y-80195000D03*
%TO.P,J2,17,Pin_17*%
%TO.N,GND*%
X140910000Y-82735000D03*
%TO.P,J2,18,Pin_18*%
%TO.N,/B1Y3*%
X140910000Y-80195000D03*
%TO.P,J2,19,Pin_19*%
%TO.N,GND*%
X138370000Y-82735000D03*
%TO.P,J2,20,Pin_20*%
%TO.N,/B1Y2*%
X138370000Y-80195000D03*
%TO.P,J2,21,Pin_21*%
%TO.N,GND*%
X135830000Y-82735000D03*
%TO.P,J2,22,Pin_22*%
%TO.N,/B1Y1*%
X135830000Y-80195000D03*
%TO.P,J2,23,Pin_23*%
%TO.N,/B2Y2*%
X133290000Y-82735000D03*
%TO.P,J2,24,Pin_24*%
%TO.N,/B1Y0*%
X133290000Y-80195000D03*
%TO.P,J2,25,Pin_25*%
%TO.N,unconnected-(J2-Pin_25-Pad25)*%
X130750000Y-82735000D03*
%TO.P,J2,26,Pin_26*%
%TO.N,/B2A3*%
X130750000Y-80195000D03*
%TD*%
D22*
%TO.N,+5V*%
X173750000Y-121750000D03*
X146250000Y-88750000D03*
X170250000Y-86250000D03*
X161250000Y-86250000D03*
X111500000Y-121500000D03*
X171250000Y-121750000D03*
X176250000Y-121750000D03*
%TO.N,GND*%
X139750000Y-124250000D03*
X176300000Y-111500000D03*
X149500000Y-124250000D03*
X174000000Y-83500000D03*
X137250000Y-124250000D03*
X152250000Y-124250000D03*
X106134066Y-122958381D03*
X153750000Y-105250000D03*
X174000000Y-87250000D03*
X173750000Y-111500000D03*
%TO.N,/A23*%
X137250000Y-114000000D03*
X133000000Y-124250000D03*
%TO.N,/A22*%
X130500000Y-124250000D03*
X138500000Y-105000000D03*
%TO.N,/A21*%
X128000000Y-124250000D03*
X137250000Y-100000000D03*
%TO.N,/A20*%
X135824500Y-97500000D03*
X125500000Y-124250000D03*
%TO.N,/A19*%
X123000000Y-124250000D03*
X133500000Y-102500000D03*
%TO.N,/A18*%
X131324500Y-112750000D03*
X120500000Y-124250000D03*
%TO.N,/B2Y2*%
X143500000Y-86000000D03*
%TO.N,/~{CEO}*%
X147250000Y-124000000D03*
%TO.N,/~{MRES}*%
X108781571Y-121815455D03*
X135750000Y-95000000D03*
%TD*%
D23*
%TO.N,+5V*%
X153750000Y-88750000D02*
X153750000Y-86250000D01*
X146250000Y-88750000D02*
X153750000Y-88750000D01*
X153750000Y-86250000D02*
X161250000Y-86250000D01*
X161250000Y-86250000D02*
X170250000Y-86250000D01*
D24*
%TO.N,GND*%
X141080000Y-111355000D02*
X146160000Y-111355000D01*
X153395000Y-101195000D02*
X153700000Y-101500000D01*
X158880000Y-111355000D02*
X163960000Y-111355000D01*
X148700000Y-106275000D02*
X152725000Y-106275000D01*
X148700000Y-101195000D02*
X153395000Y-101195000D01*
X158880000Y-91035000D02*
X157035000Y-91035000D01*
X146160000Y-111355000D02*
X148700000Y-113895000D01*
X163960000Y-111355000D02*
X166500000Y-113895000D01*
X152725000Y-106275000D02*
X153750000Y-105250000D01*
%TO.N,/A23*%
X168000000Y-114645000D02*
X167395000Y-115250000D01*
X168000000Y-112855000D02*
X168000000Y-114645000D01*
X131543000Y-130413000D02*
X131543000Y-125707000D01*
X166500000Y-111355000D02*
X168000000Y-112855000D01*
X131543000Y-125707000D02*
X133000000Y-124250000D01*
X167395000Y-115250000D02*
X138500000Y-115250000D01*
X138500000Y-115250000D02*
X137250000Y-114000000D01*
%TO.N,/A22*%
X166500000Y-106500000D02*
X165000000Y-105000000D01*
X129003000Y-125747000D02*
X130500000Y-124250000D01*
X155561917Y-105000000D02*
X154486917Y-103925000D01*
X151750000Y-105000000D02*
X138500000Y-105000000D01*
X152825000Y-103925000D02*
X151750000Y-105000000D01*
X165000000Y-105000000D02*
X155561917Y-105000000D01*
X129003000Y-130413000D02*
X129003000Y-125747000D01*
X154486917Y-103925000D02*
X152825000Y-103925000D01*
%TO.N,/A21*%
X126463000Y-125787000D02*
X128000000Y-124250000D01*
X165305000Y-100000000D02*
X137250000Y-100000000D01*
X166500000Y-101195000D02*
X165305000Y-100000000D01*
X126463000Y-130413000D02*
X126463000Y-125787000D01*
%TO.N,/A20*%
X123923000Y-130413000D02*
X123923000Y-125827000D01*
X135824500Y-97500000D02*
X135854500Y-97530000D01*
X123923000Y-125827000D02*
X125500000Y-124250000D01*
X135854500Y-97530000D02*
X157465000Y-97530000D01*
X157465000Y-97530000D02*
X158880000Y-96115000D01*
%TO.N,/A19*%
X121383000Y-125867000D02*
X123000000Y-124250000D01*
X149055000Y-102625000D02*
X148930000Y-102500000D01*
X158880000Y-101195000D02*
X157450000Y-102625000D01*
X121383000Y-130413000D02*
X121383000Y-125867000D01*
X148930000Y-102500000D02*
X133500000Y-102500000D01*
X157450000Y-102625000D02*
X149055000Y-102625000D01*
%TO.N,/A18*%
X118843000Y-125907000D02*
X120500000Y-124250000D01*
X136750000Y-107500000D02*
X157655000Y-107500000D01*
X118843000Y-130413000D02*
X118843000Y-125907000D01*
X131500000Y-112750000D02*
X136750000Y-107500000D01*
X131324500Y-112750000D02*
X131500000Y-112750000D01*
X157655000Y-107500000D02*
X158880000Y-106275000D01*
%TO.N,/~{TIME}*%
X182500000Y-130256000D02*
X182500000Y-111500000D01*
X149890000Y-110165000D02*
X148700000Y-111355000D01*
X181165000Y-110165000D02*
X149890000Y-110165000D01*
X182500000Y-111500000D02*
X181165000Y-110165000D01*
X182343000Y-130413000D02*
X182500000Y-130256000D01*
%TO.N,/B2Y2*%
X136555000Y-86000000D02*
X133290000Y-82735000D01*
X143500000Y-86000000D02*
X136555000Y-86000000D01*
%TO.N,/~{CEO}*%
X146783000Y-130413000D02*
X146783000Y-124517500D01*
X147250000Y-124050500D02*
X147250000Y-124000000D01*
X146783000Y-124517500D02*
X147250000Y-124050500D01*
%TO.N,Net-(IC2-2Y3)*%
X134335000Y-92160000D02*
X147285000Y-92160000D01*
X133250000Y-91075000D02*
X134335000Y-92160000D01*
X147285000Y-92160000D02*
X148700000Y-93575000D01*
%TO.N,/~{MRES}*%
X135750000Y-95000000D02*
X136865000Y-96115000D01*
D23*
X108683000Y-130413000D02*
X108683000Y-121914026D01*
X108683000Y-121914026D02*
X108781571Y-121815455D01*
D24*
X136865000Y-96115000D02*
X141080000Y-96115000D01*
%TD*%
%TA.AperFunction,Conductor*%
%TO.N,GND*%
G36*
X174943039Y-87519685D02*
G01*
X174988794Y-87572489D01*
X175000000Y-87624000D01*
X175000000Y-89876000D01*
X174980315Y-89943039D01*
X174927511Y-89988794D01*
X174876000Y-90000000D01*
X167500000Y-90000000D01*
X167500000Y-90876000D01*
X167480315Y-90943039D01*
X167427511Y-90988794D01*
X167376000Y-91000000D01*
X165624000Y-91000000D01*
X165556961Y-90980315D01*
X165511206Y-90927511D01*
X165500000Y-90876000D01*
X165500000Y-90000000D01*
X157500000Y-90000000D01*
X157500000Y-92376000D01*
X157480315Y-92443039D01*
X157427511Y-92488794D01*
X157376000Y-92500000D01*
X155000000Y-92500000D01*
X155000000Y-93876000D01*
X154980315Y-93943039D01*
X154927511Y-93988794D01*
X154876000Y-94000000D01*
X152624000Y-94000000D01*
X152556961Y-93980315D01*
X152511206Y-93927511D01*
X152500000Y-93876000D01*
X152500000Y-92500000D01*
X149471190Y-92500000D01*
X149404151Y-92480315D01*
X149400079Y-92477583D01*
X149352734Y-92444432D01*
X149349747Y-92443039D01*
X149146497Y-92348261D01*
X149146488Y-92348258D01*
X148926697Y-92289366D01*
X148926687Y-92289364D01*
X148863192Y-92283809D01*
X148798123Y-92258356D01*
X148757145Y-92201765D01*
X148750000Y-92160281D01*
X148750000Y-90124500D01*
X148769685Y-90057461D01*
X148822489Y-90011706D01*
X148874000Y-90000500D01*
X153720552Y-90000500D01*
X153723308Y-90000561D01*
X153806330Y-90004290D01*
X153823583Y-90001952D01*
X153833855Y-90000562D01*
X153842186Y-90000000D01*
X155000000Y-90000000D01*
X155000000Y-88870888D01*
X155000250Y-88865326D01*
X155000500Y-88862546D01*
X155000500Y-88779447D01*
X155000561Y-88776692D01*
X155004290Y-88693670D01*
X155001062Y-88669836D01*
X155000500Y-88661505D01*
X155000500Y-87624500D01*
X155020185Y-87557461D01*
X155072989Y-87511706D01*
X155124500Y-87500500D01*
X160376659Y-87500500D01*
X160435676Y-87515445D01*
X160443511Y-87519685D01*
X160645190Y-87628828D01*
X160880386Y-87709571D01*
X161125665Y-87750500D01*
X161374335Y-87750500D01*
X161619614Y-87709571D01*
X161854810Y-87628828D01*
X162056489Y-87519685D01*
X162064324Y-87515445D01*
X162123341Y-87500500D01*
X169376659Y-87500500D01*
X169435676Y-87515445D01*
X169443511Y-87519685D01*
X169645190Y-87628828D01*
X169880386Y-87709571D01*
X170125665Y-87750500D01*
X170374335Y-87750500D01*
X170619614Y-87709571D01*
X170854810Y-87628828D01*
X171056489Y-87519685D01*
X171065248Y-87514945D01*
X171124265Y-87500000D01*
X174876000Y-87500000D01*
X174943039Y-87519685D01*
G37*
%TD.AperFunction*%
%TD*%
%TA.AperFunction,Conductor*%
%TO.N,+5V*%
G36*
X177642818Y-116715482D02*
G01*
X177689303Y-116767644D01*
X177701231Y-116819495D01*
X177735911Y-120325567D01*
X177750000Y-121750000D01*
X180466000Y-121750000D01*
X180533039Y-121769685D01*
X180578794Y-121822489D01*
X180590000Y-121874000D01*
X180590000Y-127376000D01*
X180570315Y-127443039D01*
X180517511Y-127488794D01*
X180466000Y-127500000D01*
X179124000Y-127500000D01*
X179056961Y-127480315D01*
X179011206Y-127427511D01*
X179000000Y-127376000D01*
X179000000Y-124250000D01*
X156374000Y-124250000D01*
X156306961Y-124230315D01*
X156261206Y-124177511D01*
X156250000Y-124126000D01*
X156250000Y-123000000D01*
X153124265Y-123000000D01*
X153065248Y-122985055D01*
X152854816Y-122871175D01*
X152854813Y-122871174D01*
X152854810Y-122871172D01*
X152854804Y-122871170D01*
X152854802Y-122871169D01*
X152619616Y-122790429D01*
X152374335Y-122749500D01*
X152125665Y-122749500D01*
X151880383Y-122790429D01*
X151645197Y-122871169D01*
X151645183Y-122871175D01*
X151434752Y-122985055D01*
X151375735Y-123000000D01*
X150374265Y-123000000D01*
X150315248Y-122985055D01*
X150104816Y-122871175D01*
X150104813Y-122871174D01*
X150104810Y-122871172D01*
X150104804Y-122871170D01*
X150104802Y-122871169D01*
X149869616Y-122790429D01*
X149624335Y-122749500D01*
X149375665Y-122749500D01*
X149130383Y-122790429D01*
X148895197Y-122871169D01*
X148895183Y-122871175D01*
X148684752Y-122985055D01*
X148625735Y-123000000D01*
X148423315Y-123000000D01*
X148356276Y-122980315D01*
X148332087Y-122959984D01*
X148269744Y-122892262D01*
X148073509Y-122739526D01*
X148073507Y-122739525D01*
X148073506Y-122739524D01*
X147854811Y-122621172D01*
X147854802Y-122621169D01*
X147619616Y-122540429D01*
X147374335Y-122499500D01*
X147125665Y-122499500D01*
X146880383Y-122540429D01*
X146645197Y-122621169D01*
X146645188Y-122621172D01*
X146426493Y-122739524D01*
X146251149Y-122876000D01*
X146230256Y-122892262D01*
X146167913Y-122959983D01*
X146108028Y-122995973D01*
X146076685Y-123000000D01*
X140624265Y-123000000D01*
X140565248Y-122985055D01*
X140354816Y-122871175D01*
X140354813Y-122871174D01*
X140354810Y-122871172D01*
X140354804Y-122871170D01*
X140354802Y-122871169D01*
X140119616Y-122790429D01*
X139874335Y-122749500D01*
X139625665Y-122749500D01*
X139380383Y-122790429D01*
X139145197Y-122871169D01*
X139145183Y-122871175D01*
X138934752Y-122985055D01*
X138875735Y-123000000D01*
X138124265Y-123000000D01*
X138065248Y-122985055D01*
X137854816Y-122871175D01*
X137854813Y-122871174D01*
X137854810Y-122871172D01*
X137854804Y-122871170D01*
X137854802Y-122871169D01*
X137619616Y-122790429D01*
X137374335Y-122749500D01*
X137125665Y-122749500D01*
X136880383Y-122790429D01*
X136645197Y-122871169D01*
X136645183Y-122871175D01*
X136434752Y-122985055D01*
X136375735Y-123000000D01*
X133874265Y-123000000D01*
X133815248Y-122985055D01*
X133604816Y-122871175D01*
X133604813Y-122871174D01*
X133604810Y-122871172D01*
X133604804Y-122871170D01*
X133604802Y-122871169D01*
X133369616Y-122790429D01*
X133124335Y-122749500D01*
X132875665Y-122749500D01*
X132630383Y-122790429D01*
X132395197Y-122871169D01*
X132395183Y-122871175D01*
X132184752Y-122985055D01*
X132125735Y-123000000D01*
X131374265Y-123000000D01*
X131315248Y-122985055D01*
X131104816Y-122871175D01*
X131104813Y-122871174D01*
X131104810Y-122871172D01*
X131104804Y-122871170D01*
X131104802Y-122871169D01*
X130869616Y-122790429D01*
X130624335Y-122749500D01*
X130375665Y-122749500D01*
X130130383Y-122790429D01*
X129895197Y-122871169D01*
X129895183Y-122871175D01*
X129684752Y-122985055D01*
X129625735Y-123000000D01*
X128874265Y-123000000D01*
X128815248Y-122985055D01*
X128604816Y-122871175D01*
X128604813Y-122871174D01*
X128604810Y-122871172D01*
X128604804Y-122871170D01*
X128604802Y-122871169D01*
X128369616Y-122790429D01*
X128124335Y-122749500D01*
X127875665Y-122749500D01*
X127630383Y-122790429D01*
X127395197Y-122871169D01*
X127395183Y-122871175D01*
X127184752Y-122985055D01*
X127125735Y-123000000D01*
X126374265Y-123000000D01*
X126315248Y-122985055D01*
X126104816Y-122871175D01*
X126104813Y-122871174D01*
X126104810Y-122871172D01*
X126104804Y-122871170D01*
X126104802Y-122871169D01*
X125869616Y-122790429D01*
X125624335Y-122749500D01*
X125375665Y-122749500D01*
X125130383Y-122790429D01*
X124895197Y-122871169D01*
X124895183Y-122871175D01*
X124684752Y-122985055D01*
X124625735Y-123000000D01*
X123874265Y-123000000D01*
X123815248Y-122985055D01*
X123604816Y-122871175D01*
X123604813Y-122871174D01*
X123604810Y-122871172D01*
X123604804Y-122871170D01*
X123604802Y-122871169D01*
X123369616Y-122790429D01*
X123124335Y-122749500D01*
X122875665Y-122749500D01*
X122630383Y-122790429D01*
X122395197Y-122871169D01*
X122395183Y-122871175D01*
X122184752Y-122985055D01*
X122125735Y-123000000D01*
X121374265Y-123000000D01*
X121315248Y-122985055D01*
X121104816Y-122871175D01*
X121104813Y-122871174D01*
X121104810Y-122871172D01*
X121104804Y-122871170D01*
X121104802Y-122871169D01*
X120869616Y-122790429D01*
X120624335Y-122749500D01*
X120375665Y-122749500D01*
X120130383Y-122790429D01*
X119895197Y-122871169D01*
X119895183Y-122871175D01*
X119684752Y-122985055D01*
X119625735Y-123000000D01*
X111624000Y-123000000D01*
X111556961Y-122980315D01*
X111511206Y-122927511D01*
X111500000Y-122876000D01*
X111500000Y-120374000D01*
X111519685Y-120306961D01*
X111572489Y-120261206D01*
X111624000Y-120250000D01*
X138500000Y-120250000D01*
X138500000Y-119124000D01*
X138519685Y-119056961D01*
X138572489Y-119011206D01*
X138624000Y-119000000D01*
X143376000Y-119000000D01*
X143443039Y-119019685D01*
X143488794Y-119072489D01*
X143500000Y-119124000D01*
X143500000Y-120250000D01*
X147900247Y-120250000D01*
X147967286Y-120269685D01*
X147971351Y-120272412D01*
X148047266Y-120325568D01*
X148253504Y-120421739D01*
X148473308Y-120480635D01*
X148635230Y-120494801D01*
X148699998Y-120500468D01*
X148700000Y-120500468D01*
X148700002Y-120500468D01*
X148756672Y-120495509D01*
X148926692Y-120480635D01*
X149146496Y-120421739D01*
X149352734Y-120325568D01*
X149428631Y-120272424D01*
X149494836Y-120250098D01*
X149499753Y-120250000D01*
X156250000Y-120250000D01*
X156250000Y-119124000D01*
X156269685Y-119056961D01*
X156322489Y-119011206D01*
X156374000Y-119000000D01*
X160376000Y-119000000D01*
X160443039Y-119019685D01*
X160488794Y-119072489D01*
X160500000Y-119124000D01*
X160500000Y-120250000D01*
X165400247Y-120250000D01*
X165467286Y-120269685D01*
X165471351Y-120272412D01*
X165547266Y-120325568D01*
X165753504Y-120421739D01*
X165973308Y-120480635D01*
X166135230Y-120494801D01*
X166199998Y-120500468D01*
X166200000Y-120500468D01*
X166200002Y-120500468D01*
X166256673Y-120495509D01*
X166426692Y-120480635D01*
X166646496Y-120421739D01*
X166852734Y-120325568D01*
X166928631Y-120272424D01*
X166994836Y-120250098D01*
X166999753Y-120250000D01*
X173750000Y-120250000D01*
X173750000Y-116872285D01*
X173769685Y-116805246D01*
X173822489Y-116759491D01*
X173872271Y-116748297D01*
X177575512Y-116696733D01*
X177642818Y-116715482D01*
G37*
%TD.AperFunction*%
%TD*%
%TA.AperFunction,Conductor*%
%TO.N,GND*%
G36*
X174343039Y-81819685D02*
G01*
X174388794Y-81872489D01*
X174400000Y-81924000D01*
X174400000Y-84776000D01*
X174380315Y-84843039D01*
X174327511Y-84888794D01*
X174276000Y-84900000D01*
X170939481Y-84900000D01*
X170880464Y-84885055D01*
X170854810Y-84871172D01*
X170854802Y-84871169D01*
X170619616Y-84790429D01*
X170374335Y-84749500D01*
X170125665Y-84749500D01*
X169880383Y-84790429D01*
X169645197Y-84871169D01*
X169645189Y-84871172D01*
X169628453Y-84880229D01*
X169619535Y-84885055D01*
X169560519Y-84900000D01*
X161939481Y-84900000D01*
X161880464Y-84885055D01*
X161854810Y-84871172D01*
X161854802Y-84871169D01*
X161619617Y-84790429D01*
X161403590Y-84754381D01*
X161340705Y-84723930D01*
X161304266Y-84664316D01*
X161300000Y-84632072D01*
X161300000Y-83300000D01*
X136024000Y-83300000D01*
X135956961Y-83280315D01*
X135911206Y-83227511D01*
X135900000Y-83176000D01*
X135900000Y-82224000D01*
X135919685Y-82156961D01*
X135972489Y-82111206D01*
X136024000Y-82100000D01*
X161300000Y-82100000D01*
X161300000Y-81924000D01*
X161319685Y-81856961D01*
X161372489Y-81811206D01*
X161424000Y-81800000D01*
X174276000Y-81800000D01*
X174343039Y-81819685D01*
G37*
%TD.AperFunction*%
%TD*%
%TA.AperFunction,Conductor*%
%TO.N,GND*%
G36*
X129443039Y-111519685D02*
G01*
X129488794Y-111572489D01*
X129500000Y-111624000D01*
X129500000Y-114000000D01*
X131500000Y-116000000D01*
X169000000Y-116000000D01*
X169000000Y-111874000D01*
X169019685Y-111806961D01*
X169072489Y-111761206D01*
X169124000Y-111750000D01*
X181376000Y-111750000D01*
X181443039Y-111769685D01*
X181488794Y-111822489D01*
X181500000Y-111874000D01*
X181500000Y-117876000D01*
X181480315Y-117943039D01*
X181427511Y-117988794D01*
X181376000Y-118000000D01*
X179124000Y-118000000D01*
X179056961Y-117980315D01*
X179011206Y-117927511D01*
X179000000Y-117876000D01*
X179000000Y-115500000D01*
X177666407Y-115500000D01*
X177599368Y-115480315D01*
X177592096Y-115475267D01*
X177591562Y-115474867D01*
X177559952Y-115451204D01*
X177559950Y-115451203D01*
X177559949Y-115451202D01*
X177425103Y-115400908D01*
X177425104Y-115400908D01*
X177365504Y-115394501D01*
X177365502Y-115394500D01*
X177365494Y-115394500D01*
X177365485Y-115394500D01*
X175669750Y-115394500D01*
X175669744Y-115394501D01*
X175610137Y-115400908D01*
X175475292Y-115451202D01*
X175475290Y-115451204D01*
X175443146Y-115475267D01*
X175377682Y-115499684D01*
X175368835Y-115500000D01*
X172500000Y-115500000D01*
X172500000Y-118876000D01*
X172480315Y-118943039D01*
X172427511Y-118988794D01*
X172376000Y-119000000D01*
X164374000Y-119000000D01*
X164306961Y-118980315D01*
X164261206Y-118927511D01*
X164250000Y-118876000D01*
X164250000Y-117750000D01*
X151250000Y-117750000D01*
X151250000Y-118876000D01*
X151230315Y-118943039D01*
X151177511Y-118988794D01*
X151126000Y-119000000D01*
X146374000Y-119000000D01*
X146306961Y-118980315D01*
X146261206Y-118927511D01*
X146250000Y-118876000D01*
X146250000Y-117750000D01*
X136000000Y-117750000D01*
X136000000Y-119626000D01*
X135980315Y-119693039D01*
X135927511Y-119738794D01*
X135876000Y-119750000D01*
X107749999Y-119750000D01*
X107671829Y-120766208D01*
X107647060Y-120831541D01*
X107639425Y-120840680D01*
X107593405Y-120890672D01*
X107457397Y-121098848D01*
X107357507Y-121326573D01*
X107296463Y-121567630D01*
X107296461Y-121567642D01*
X107275928Y-121815449D01*
X107275928Y-121815460D01*
X107296461Y-122063267D01*
X107296463Y-122063279D01*
X107357507Y-122304336D01*
X107422056Y-122451490D01*
X107432500Y-122501300D01*
X107432500Y-122876000D01*
X107412815Y-122943039D01*
X107360011Y-122988794D01*
X107308500Y-123000000D01*
X105624000Y-123000000D01*
X105556961Y-122980315D01*
X105511206Y-122927511D01*
X105500000Y-122876000D01*
X105500000Y-116695004D01*
X106294732Y-116695004D01*
X106313777Y-116949154D01*
X106313778Y-116949157D01*
X106370492Y-117197637D01*
X106463607Y-117434888D01*
X106591041Y-117655612D01*
X106749950Y-117854877D01*
X106936783Y-118028232D01*
X107147366Y-118171805D01*
X107147371Y-118171807D01*
X107147372Y-118171808D01*
X107147373Y-118171809D01*
X107195433Y-118194953D01*
X107376992Y-118282387D01*
X107376993Y-118282387D01*
X107376996Y-118282389D01*
X107620542Y-118357513D01*
X107872565Y-118395500D01*
X108127435Y-118395500D01*
X108379458Y-118357513D01*
X108623004Y-118282389D01*
X108852634Y-118171805D01*
X109063217Y-118028232D01*
X109250050Y-117854877D01*
X109408959Y-117655612D01*
X109536393Y-117434888D01*
X109629508Y-117197637D01*
X109686222Y-116949157D01*
X109705268Y-116695004D01*
X126614732Y-116695004D01*
X126633777Y-116949154D01*
X126633778Y-116949157D01*
X126690492Y-117197637D01*
X126783607Y-117434888D01*
X126911041Y-117655612D01*
X127069950Y-117854877D01*
X127256783Y-118028232D01*
X127467366Y-118171805D01*
X127467371Y-118171807D01*
X127467372Y-118171808D01*
X127467373Y-118171809D01*
X127515433Y-118194953D01*
X127696992Y-118282387D01*
X127696993Y-118282387D01*
X127696996Y-118282389D01*
X127940542Y-118357513D01*
X128192565Y-118395500D01*
X128447435Y-118395500D01*
X128699458Y-118357513D01*
X128943004Y-118282389D01*
X129172634Y-118171805D01*
X129383217Y-118028232D01*
X129570050Y-117854877D01*
X129728959Y-117655612D01*
X129856393Y-117434888D01*
X129949508Y-117197637D01*
X130006222Y-116949157D01*
X130025268Y-116695000D01*
X130006222Y-116440843D01*
X129949508Y-116192363D01*
X129856393Y-115955112D01*
X129728959Y-115734388D01*
X129570050Y-115535123D01*
X129383217Y-115361768D01*
X129172634Y-115218195D01*
X129172630Y-115218193D01*
X129172627Y-115218191D01*
X129172626Y-115218190D01*
X128943006Y-115107612D01*
X128943008Y-115107612D01*
X128699466Y-115032489D01*
X128699462Y-115032488D01*
X128699458Y-115032487D01*
X128578231Y-115014214D01*
X128447440Y-114994500D01*
X128447435Y-114994500D01*
X128192565Y-114994500D01*
X128192559Y-114994500D01*
X128052697Y-115015582D01*
X127940542Y-115032487D01*
X127940538Y-115032488D01*
X127940539Y-115032488D01*
X127940533Y-115032489D01*
X127696992Y-115107612D01*
X127467373Y-115218190D01*
X127467372Y-115218191D01*
X127256782Y-115361768D01*
X127069952Y-115535121D01*
X127069950Y-115535123D01*
X126911041Y-115734388D01*
X126783608Y-115955109D01*
X126690492Y-116192362D01*
X126690490Y-116192369D01*
X126633777Y-116440845D01*
X126614732Y-116694995D01*
X126614732Y-116695004D01*
X109705268Y-116695004D01*
X109705268Y-116695000D01*
X109686222Y-116440843D01*
X109629508Y-116192363D01*
X109536393Y-115955112D01*
X109408959Y-115734388D01*
X109250050Y-115535123D01*
X109063217Y-115361768D01*
X108852634Y-115218195D01*
X108852630Y-115218193D01*
X108852627Y-115218191D01*
X108852626Y-115218190D01*
X108623006Y-115107612D01*
X108623008Y-115107612D01*
X108379466Y-115032489D01*
X108379462Y-115032488D01*
X108379458Y-115032487D01*
X108258231Y-115014214D01*
X108127440Y-114994500D01*
X108127435Y-114994500D01*
X107872565Y-114994500D01*
X107872559Y-114994500D01*
X107732697Y-115015582D01*
X107620542Y-115032487D01*
X107620538Y-115032488D01*
X107620539Y-115032488D01*
X107620533Y-115032489D01*
X107376992Y-115107612D01*
X107147373Y-115218190D01*
X107147372Y-115218191D01*
X106936782Y-115361768D01*
X106749952Y-115535121D01*
X106749950Y-115535123D01*
X106591041Y-115734388D01*
X106463608Y-115955109D01*
X106370492Y-116192362D01*
X106370490Y-116192369D01*
X106313777Y-116440845D01*
X106294732Y-116694995D01*
X106294732Y-116695004D01*
X105500000Y-116695004D01*
X105500000Y-113374000D01*
X105519685Y-113306961D01*
X105572489Y-113261206D01*
X105624000Y-113250000D01*
X126500000Y-113250000D01*
X127712910Y-111551926D01*
X127767894Y-111508816D01*
X127813813Y-111500000D01*
X129376000Y-111500000D01*
X129443039Y-111519685D01*
G37*
%TD.AperFunction*%
%TD*%
M02*
