%TF.GenerationSoftware,KiCad,Pcbnew,7.0.5*%
%TF.CreationDate,2023-10-29T18:10:31+11:00*%
%TF.ProjectId,Sega DS-16,53656761-2044-4532-9d31-362e6b696361,rev?*%
%TF.SameCoordinates,Original*%
%TF.FileFunction,Legend,Top*%
%TF.FilePolarity,Positive*%
%FSLAX46Y46*%
G04 Gerber Fmt 4.6, Leading zero omitted, Abs format (unit mm)*
G04 Created by KiCad (PCBNEW 7.0.5) date 2023-10-29 18:10:31*
%MOMM*%
%LPD*%
G01*
G04 APERTURE LIST*
%ADD10C,0.350000*%
%ADD11C,0.450000*%
%ADD12C,0.500000*%
%ADD13C,0.120000*%
G04 APERTURE END LIST*
D10*
X119200000Y-77000000D02*
X123050000Y-77000000D01*
X124450000Y-77000000D02*
X128300000Y-77000000D01*
X129700000Y-77000000D02*
X133550000Y-77000000D01*
X134950000Y-77000000D02*
X138800000Y-77000000D01*
X140200000Y-77000000D02*
X144050000Y-77000000D01*
X145450000Y-77000000D02*
X149300000Y-77000000D01*
X150700000Y-77000000D02*
X154550000Y-77000000D01*
X155950000Y-77000000D02*
X159800000Y-77000000D01*
X161200000Y-77000000D02*
X165050000Y-77000000D01*
X166450000Y-77000000D02*
X170300000Y-77000000D01*
X171700000Y-77000000D02*
X172600000Y-77000000D01*
X172600000Y-77000000D02*
X172600000Y-80850000D01*
X172600000Y-82250000D02*
X172600000Y-86000000D01*
X172600000Y-86000000D02*
X168750000Y-86000000D01*
X167350000Y-86000000D02*
X163500000Y-86000000D01*
X162100000Y-86000000D02*
X158250000Y-86000000D01*
X156850000Y-86000000D02*
X153000000Y-86000000D01*
X151600000Y-86000000D02*
X147750000Y-86000000D01*
X146350000Y-86000000D02*
X142500000Y-86000000D01*
X141100000Y-86000000D02*
X137250000Y-86000000D01*
X135850000Y-86000000D02*
X132000000Y-86000000D01*
X130600000Y-86000000D02*
X126750000Y-86000000D01*
X125350000Y-86000000D02*
X121500000Y-86000000D01*
X120100000Y-86000000D02*
X119200000Y-86000000D01*
X119200000Y-86000000D02*
X119200000Y-82150000D01*
X119200000Y-80750000D02*
X119200000Y-77000000D01*
D11*
X163356314Y-108951567D02*
X161556314Y-108951567D01*
X162413457Y-108951567D02*
X162413457Y-107865852D01*
X163356314Y-107865852D02*
X161556314Y-107865852D01*
X163184885Y-105875376D02*
X163270600Y-105965852D01*
X163270600Y-105965852D02*
X163356314Y-106237281D01*
X163356314Y-106237281D02*
X163356314Y-106418233D01*
X163356314Y-106418233D02*
X163270600Y-106689662D01*
X163270600Y-106689662D02*
X163099171Y-106870614D01*
X163099171Y-106870614D02*
X162927742Y-106961091D01*
X162927742Y-106961091D02*
X162584885Y-107051567D01*
X162584885Y-107051567D02*
X162327742Y-107051567D01*
X162327742Y-107051567D02*
X161984885Y-106961091D01*
X161984885Y-106961091D02*
X161813457Y-106870614D01*
X161813457Y-106870614D02*
X161642028Y-106689662D01*
X161642028Y-106689662D02*
X161556314Y-106418233D01*
X161556314Y-106418233D02*
X161556314Y-106237281D01*
X161556314Y-106237281D02*
X161642028Y-105965852D01*
X161642028Y-105965852D02*
X161727742Y-105875376D01*
X161727742Y-105151567D02*
X161642028Y-105061091D01*
X161642028Y-105061091D02*
X161556314Y-104880138D01*
X161556314Y-104880138D02*
X161556314Y-104427757D01*
X161556314Y-104427757D02*
X161642028Y-104246805D01*
X161642028Y-104246805D02*
X161727742Y-104156329D01*
X161727742Y-104156329D02*
X161899171Y-104065852D01*
X161899171Y-104065852D02*
X162070600Y-104065852D01*
X162070600Y-104065852D02*
X162327742Y-104156329D01*
X162327742Y-104156329D02*
X163356314Y-105242043D01*
X163356314Y-105242043D02*
X163356314Y-104065852D01*
X162156314Y-102437281D02*
X163356314Y-102437281D01*
X161470600Y-102889662D02*
X162756314Y-103342043D01*
X162756314Y-103342043D02*
X162756314Y-102165852D01*
X162156314Y-100627757D02*
X163356314Y-100627757D01*
X161470600Y-101080138D02*
X162756314Y-101532519D01*
X162756314Y-101532519D02*
X162756314Y-100356328D01*
X125957956Y-79427742D02*
X126048432Y-79342028D01*
X126048432Y-79342028D02*
X126229385Y-79256314D01*
X126229385Y-79256314D02*
X126681766Y-79256314D01*
X126681766Y-79256314D02*
X126862718Y-79342028D01*
X126862718Y-79342028D02*
X126953194Y-79427742D01*
X126953194Y-79427742D02*
X127043671Y-79599171D01*
X127043671Y-79599171D02*
X127043671Y-79770600D01*
X127043671Y-79770600D02*
X126953194Y-80027742D01*
X126953194Y-80027742D02*
X125867480Y-81056314D01*
X125867480Y-81056314D02*
X127043671Y-81056314D01*
X128672242Y-79256314D02*
X128310337Y-79256314D01*
X128310337Y-79256314D02*
X128129385Y-79342028D01*
X128129385Y-79342028D02*
X128038909Y-79427742D01*
X128038909Y-79427742D02*
X127857956Y-79684885D01*
X127857956Y-79684885D02*
X127767480Y-80027742D01*
X127767480Y-80027742D02*
X127767480Y-80713457D01*
X127767480Y-80713457D02*
X127857956Y-80884885D01*
X127857956Y-80884885D02*
X127948433Y-80970600D01*
X127948433Y-80970600D02*
X128129385Y-81056314D01*
X128129385Y-81056314D02*
X128491290Y-81056314D01*
X128491290Y-81056314D02*
X128672242Y-80970600D01*
X128672242Y-80970600D02*
X128762718Y-80884885D01*
X128762718Y-80884885D02*
X128853195Y-80713457D01*
X128853195Y-80713457D02*
X128853195Y-80284885D01*
X128853195Y-80284885D02*
X128762718Y-80113457D01*
X128762718Y-80113457D02*
X128672242Y-80027742D01*
X128672242Y-80027742D02*
X128491290Y-79942028D01*
X128491290Y-79942028D02*
X128129385Y-79942028D01*
X128129385Y-79942028D02*
X127948433Y-80027742D01*
X127948433Y-80027742D02*
X127857956Y-80113457D01*
X127857956Y-80113457D02*
X127767480Y-80284885D01*
X173756314Y-110251567D02*
X171956314Y-110251567D01*
X171956314Y-110251567D02*
X173242028Y-109618233D01*
X173242028Y-109618233D02*
X171956314Y-108984900D01*
X171956314Y-108984900D02*
X173756314Y-108984900D01*
X173242028Y-108170614D02*
X173242028Y-107265852D01*
X173756314Y-108351566D02*
X171956314Y-107718233D01*
X171956314Y-107718233D02*
X173756314Y-107084899D01*
X173756314Y-106451567D02*
X171956314Y-106451567D01*
X171956314Y-106451567D02*
X171956314Y-105999186D01*
X171956314Y-105999186D02*
X172042028Y-105727757D01*
X172042028Y-105727757D02*
X172213457Y-105546805D01*
X172213457Y-105546805D02*
X172384885Y-105456328D01*
X172384885Y-105456328D02*
X172727742Y-105365852D01*
X172727742Y-105365852D02*
X172984885Y-105365852D01*
X172984885Y-105365852D02*
X173327742Y-105456328D01*
X173327742Y-105456328D02*
X173499171Y-105546805D01*
X173499171Y-105546805D02*
X173670600Y-105727757D01*
X173670600Y-105727757D02*
X173756314Y-105999186D01*
X173756314Y-105999186D02*
X173756314Y-106451567D01*
X172813457Y-104551567D02*
X172813457Y-103918233D01*
X173756314Y-103646805D02*
X173756314Y-104551567D01*
X173756314Y-104551567D02*
X171956314Y-104551567D01*
X171956314Y-104551567D02*
X171956314Y-103646805D01*
X173756314Y-101384900D02*
X171956314Y-101384900D01*
X173756314Y-100480138D02*
X171956314Y-100480138D01*
X171956314Y-100480138D02*
X173756314Y-99394423D01*
X173756314Y-99394423D02*
X171956314Y-99394423D01*
X171956314Y-96499185D02*
X173242028Y-96499185D01*
X173242028Y-96499185D02*
X173499171Y-96589662D01*
X173499171Y-96589662D02*
X173670600Y-96770614D01*
X173670600Y-96770614D02*
X173756314Y-97042043D01*
X173756314Y-97042043D02*
X173756314Y-97222995D01*
X173242028Y-95684900D02*
X173242028Y-94780138D01*
X173756314Y-95865852D02*
X171956314Y-95232519D01*
X171956314Y-95232519D02*
X173756314Y-94599185D01*
X173756314Y-93965853D02*
X171956314Y-93965853D01*
X171956314Y-93965853D02*
X171956314Y-93242043D01*
X171956314Y-93242043D02*
X172042028Y-93061091D01*
X172042028Y-93061091D02*
X172127742Y-92970614D01*
X172127742Y-92970614D02*
X172299171Y-92880138D01*
X172299171Y-92880138D02*
X172556314Y-92880138D01*
X172556314Y-92880138D02*
X172727742Y-92970614D01*
X172727742Y-92970614D02*
X172813457Y-93061091D01*
X172813457Y-93061091D02*
X172899171Y-93242043D01*
X172899171Y-93242043D02*
X172899171Y-93965853D01*
X173242028Y-92156329D02*
X173242028Y-91251567D01*
X173756314Y-92337281D02*
X171956314Y-91703948D01*
X171956314Y-91703948D02*
X173756314Y-91070614D01*
X173756314Y-90437282D02*
X171956314Y-90437282D01*
X171956314Y-90437282D02*
X173756314Y-89351567D01*
X173756314Y-89351567D02*
X171956314Y-89351567D01*
X134334147Y-88484885D02*
X134243671Y-88570600D01*
X134243671Y-88570600D02*
X133972242Y-88656314D01*
X133972242Y-88656314D02*
X133791290Y-88656314D01*
X133791290Y-88656314D02*
X133519861Y-88570600D01*
X133519861Y-88570600D02*
X133338909Y-88399171D01*
X133338909Y-88399171D02*
X133248432Y-88227742D01*
X133248432Y-88227742D02*
X133157956Y-87884885D01*
X133157956Y-87884885D02*
X133157956Y-87627742D01*
X133157956Y-87627742D02*
X133248432Y-87284885D01*
X133248432Y-87284885D02*
X133338909Y-87113457D01*
X133338909Y-87113457D02*
X133519861Y-86942028D01*
X133519861Y-86942028D02*
X133791290Y-86856314D01*
X133791290Y-86856314D02*
X133972242Y-86856314D01*
X133972242Y-86856314D02*
X134243671Y-86942028D01*
X134243671Y-86942028D02*
X134334147Y-87027742D01*
X135148432Y-88656314D02*
X135148432Y-86856314D01*
X135148432Y-86856314D02*
X136234147Y-88656314D01*
X136234147Y-88656314D02*
X136234147Y-86856314D01*
X137138908Y-87970600D02*
X138586528Y-87970600D01*
X139400813Y-87027742D02*
X139491289Y-86942028D01*
X139491289Y-86942028D02*
X139672242Y-86856314D01*
X139672242Y-86856314D02*
X140124623Y-86856314D01*
X140124623Y-86856314D02*
X140305575Y-86942028D01*
X140305575Y-86942028D02*
X140396051Y-87027742D01*
X140396051Y-87027742D02*
X140486528Y-87199171D01*
X140486528Y-87199171D02*
X140486528Y-87370600D01*
X140486528Y-87370600D02*
X140396051Y-87627742D01*
X140396051Y-87627742D02*
X139310337Y-88656314D01*
X139310337Y-88656314D02*
X140486528Y-88656314D01*
X125957956Y-81927742D02*
X126048432Y-81842028D01*
X126048432Y-81842028D02*
X126229385Y-81756314D01*
X126229385Y-81756314D02*
X126681766Y-81756314D01*
X126681766Y-81756314D02*
X126862718Y-81842028D01*
X126862718Y-81842028D02*
X126953194Y-81927742D01*
X126953194Y-81927742D02*
X127043671Y-82099171D01*
X127043671Y-82099171D02*
X127043671Y-82270600D01*
X127043671Y-82270600D02*
X126953194Y-82527742D01*
X126953194Y-82527742D02*
X125867480Y-83556314D01*
X125867480Y-83556314D02*
X127043671Y-83556314D01*
X128762718Y-81756314D02*
X127857956Y-81756314D01*
X127857956Y-81756314D02*
X127767480Y-82613457D01*
X127767480Y-82613457D02*
X127857956Y-82527742D01*
X127857956Y-82527742D02*
X128038909Y-82442028D01*
X128038909Y-82442028D02*
X128491290Y-82442028D01*
X128491290Y-82442028D02*
X128672242Y-82527742D01*
X128672242Y-82527742D02*
X128762718Y-82613457D01*
X128762718Y-82613457D02*
X128853195Y-82784885D01*
X128853195Y-82784885D02*
X128853195Y-83213457D01*
X128853195Y-83213457D02*
X128762718Y-83384885D01*
X128762718Y-83384885D02*
X128672242Y-83470600D01*
X128672242Y-83470600D02*
X128491290Y-83556314D01*
X128491290Y-83556314D02*
X128038909Y-83556314D01*
X128038909Y-83556314D02*
X127857956Y-83470600D01*
X127857956Y-83470600D02*
X127767480Y-83384885D01*
X159734147Y-125184885D02*
X159643671Y-125270600D01*
X159643671Y-125270600D02*
X159372242Y-125356314D01*
X159372242Y-125356314D02*
X159191290Y-125356314D01*
X159191290Y-125356314D02*
X158919861Y-125270600D01*
X158919861Y-125270600D02*
X158738909Y-125099171D01*
X158738909Y-125099171D02*
X158648432Y-124927742D01*
X158648432Y-124927742D02*
X158557956Y-124584885D01*
X158557956Y-124584885D02*
X158557956Y-124327742D01*
X158557956Y-124327742D02*
X158648432Y-123984885D01*
X158648432Y-123984885D02*
X158738909Y-123813457D01*
X158738909Y-123813457D02*
X158919861Y-123642028D01*
X158919861Y-123642028D02*
X159191290Y-123556314D01*
X159191290Y-123556314D02*
X159372242Y-123556314D01*
X159372242Y-123556314D02*
X159643671Y-123642028D01*
X159643671Y-123642028D02*
X159734147Y-123727742D01*
X160548432Y-125356314D02*
X160548432Y-123556314D01*
X160548432Y-123556314D02*
X161634147Y-125356314D01*
X161634147Y-125356314D02*
X161634147Y-123556314D01*
X162538908Y-124670600D02*
X163986528Y-124670600D01*
X165886528Y-125356314D02*
X164800813Y-125356314D01*
X165343670Y-125356314D02*
X165343670Y-123556314D01*
X165343670Y-123556314D02*
X165162718Y-123813457D01*
X165162718Y-123813457D02*
X164981766Y-123984885D01*
X164981766Y-123984885D02*
X164800813Y-124070600D01*
X145756314Y-108951567D02*
X143956314Y-108951567D01*
X144813457Y-108951567D02*
X144813457Y-107865852D01*
X145756314Y-107865852D02*
X143956314Y-107865852D01*
X145584885Y-105875376D02*
X145670600Y-105965852D01*
X145670600Y-105965852D02*
X145756314Y-106237281D01*
X145756314Y-106237281D02*
X145756314Y-106418233D01*
X145756314Y-106418233D02*
X145670600Y-106689662D01*
X145670600Y-106689662D02*
X145499171Y-106870614D01*
X145499171Y-106870614D02*
X145327742Y-106961091D01*
X145327742Y-106961091D02*
X144984885Y-107051567D01*
X144984885Y-107051567D02*
X144727742Y-107051567D01*
X144727742Y-107051567D02*
X144384885Y-106961091D01*
X144384885Y-106961091D02*
X144213457Y-106870614D01*
X144213457Y-106870614D02*
X144042028Y-106689662D01*
X144042028Y-106689662D02*
X143956314Y-106418233D01*
X143956314Y-106418233D02*
X143956314Y-106237281D01*
X143956314Y-106237281D02*
X144042028Y-105965852D01*
X144042028Y-105965852D02*
X144127742Y-105875376D01*
X144127742Y-105151567D02*
X144042028Y-105061091D01*
X144042028Y-105061091D02*
X143956314Y-104880138D01*
X143956314Y-104880138D02*
X143956314Y-104427757D01*
X143956314Y-104427757D02*
X144042028Y-104246805D01*
X144042028Y-104246805D02*
X144127742Y-104156329D01*
X144127742Y-104156329D02*
X144299171Y-104065852D01*
X144299171Y-104065852D02*
X144470600Y-104065852D01*
X144470600Y-104065852D02*
X144727742Y-104156329D01*
X144727742Y-104156329D02*
X145756314Y-105242043D01*
X145756314Y-105242043D02*
X145756314Y-104065852D01*
X144556314Y-102437281D02*
X145756314Y-102437281D01*
X143870600Y-102889662D02*
X145156314Y-103342043D01*
X145156314Y-103342043D02*
X145156314Y-102165852D01*
X144556314Y-100627757D02*
X145756314Y-100627757D01*
X143870600Y-101080138D02*
X145156314Y-101532519D01*
X145156314Y-101532519D02*
X145156314Y-100356328D01*
X164443671Y-83556314D02*
X163357956Y-83556314D01*
X163900813Y-83556314D02*
X163900813Y-81756314D01*
X163900813Y-81756314D02*
X163719861Y-82013457D01*
X163719861Y-82013457D02*
X163538909Y-82184885D01*
X163538909Y-82184885D02*
X163357956Y-82270600D01*
X182681766Y-125313457D02*
X182953194Y-125399171D01*
X182953194Y-125399171D02*
X183043671Y-125484885D01*
X183043671Y-125484885D02*
X183134147Y-125656314D01*
X183134147Y-125656314D02*
X183134147Y-125913457D01*
X183134147Y-125913457D02*
X183043671Y-126084885D01*
X183043671Y-126084885D02*
X182953194Y-126170600D01*
X182953194Y-126170600D02*
X182772242Y-126256314D01*
X182772242Y-126256314D02*
X182048432Y-126256314D01*
X182048432Y-126256314D02*
X182048432Y-124456314D01*
X182048432Y-124456314D02*
X182681766Y-124456314D01*
X182681766Y-124456314D02*
X182862718Y-124542028D01*
X182862718Y-124542028D02*
X182953194Y-124627742D01*
X182953194Y-124627742D02*
X183043671Y-124799171D01*
X183043671Y-124799171D02*
X183043671Y-124970600D01*
X183043671Y-124970600D02*
X182953194Y-125142028D01*
X182953194Y-125142028D02*
X182862718Y-125227742D01*
X182862718Y-125227742D02*
X182681766Y-125313457D01*
X182681766Y-125313457D02*
X182048432Y-125313457D01*
X183767480Y-124456314D02*
X184943671Y-124456314D01*
X184943671Y-124456314D02*
X184310337Y-125142028D01*
X184310337Y-125142028D02*
X184581766Y-125142028D01*
X184581766Y-125142028D02*
X184762718Y-125227742D01*
X184762718Y-125227742D02*
X184853194Y-125313457D01*
X184853194Y-125313457D02*
X184943671Y-125484885D01*
X184943671Y-125484885D02*
X184943671Y-125913457D01*
X184943671Y-125913457D02*
X184853194Y-126084885D01*
X184853194Y-126084885D02*
X184762718Y-126170600D01*
X184762718Y-126170600D02*
X184581766Y-126256314D01*
X184581766Y-126256314D02*
X184038909Y-126256314D01*
X184038909Y-126256314D02*
X183857956Y-126170600D01*
X183857956Y-126170600D02*
X183767480Y-126084885D01*
X185667480Y-124627742D02*
X185757956Y-124542028D01*
X185757956Y-124542028D02*
X185938909Y-124456314D01*
X185938909Y-124456314D02*
X186391290Y-124456314D01*
X186391290Y-124456314D02*
X186572242Y-124542028D01*
X186572242Y-124542028D02*
X186662718Y-124627742D01*
X186662718Y-124627742D02*
X186753195Y-124799171D01*
X186753195Y-124799171D02*
X186753195Y-124970600D01*
X186753195Y-124970600D02*
X186662718Y-125227742D01*
X186662718Y-125227742D02*
X185577004Y-126256314D01*
X185577004Y-126256314D02*
X186753195Y-126256314D01*
X105581766Y-125413457D02*
X105853194Y-125499171D01*
X105853194Y-125499171D02*
X105943671Y-125584885D01*
X105943671Y-125584885D02*
X106034147Y-125756314D01*
X106034147Y-125756314D02*
X106034147Y-126013457D01*
X106034147Y-126013457D02*
X105943671Y-126184885D01*
X105943671Y-126184885D02*
X105853194Y-126270600D01*
X105853194Y-126270600D02*
X105672242Y-126356314D01*
X105672242Y-126356314D02*
X104948432Y-126356314D01*
X104948432Y-126356314D02*
X104948432Y-124556314D01*
X104948432Y-124556314D02*
X105581766Y-124556314D01*
X105581766Y-124556314D02*
X105762718Y-124642028D01*
X105762718Y-124642028D02*
X105853194Y-124727742D01*
X105853194Y-124727742D02*
X105943671Y-124899171D01*
X105943671Y-124899171D02*
X105943671Y-125070600D01*
X105943671Y-125070600D02*
X105853194Y-125242028D01*
X105853194Y-125242028D02*
X105762718Y-125327742D01*
X105762718Y-125327742D02*
X105581766Y-125413457D01*
X105581766Y-125413457D02*
X104948432Y-125413457D01*
X107843671Y-126356314D02*
X106757956Y-126356314D01*
X107300813Y-126356314D02*
X107300813Y-124556314D01*
X107300813Y-124556314D02*
X107119861Y-124813457D01*
X107119861Y-124813457D02*
X106938909Y-124984885D01*
X106938909Y-124984885D02*
X106757956Y-125070600D01*
D12*
X169439476Y-109680576D02*
X169320428Y-109928195D01*
X169320428Y-109928195D02*
X169201380Y-110052005D01*
X169201380Y-110052005D02*
X168963285Y-110175814D01*
X168963285Y-110175814D02*
X168844238Y-110175814D01*
X168844238Y-110175814D02*
X168606142Y-110052005D01*
X168606142Y-110052005D02*
X168487095Y-109928195D01*
X168487095Y-109928195D02*
X168368047Y-109680576D01*
X168368047Y-109680576D02*
X168368047Y-109185338D01*
X168368047Y-109185338D02*
X168487095Y-108937719D01*
X168487095Y-108937719D02*
X168606142Y-108813910D01*
X168606142Y-108813910D02*
X168844238Y-108690100D01*
X168844238Y-108690100D02*
X168963285Y-108690100D01*
X168963285Y-108690100D02*
X169201380Y-108813910D01*
X169201380Y-108813910D02*
X169320428Y-108937719D01*
X169320428Y-108937719D02*
X169439476Y-109185338D01*
X169439476Y-109185338D02*
X169439476Y-109680576D01*
X169439476Y-109680576D02*
X169558523Y-109928195D01*
X169558523Y-109928195D02*
X169677571Y-110052005D01*
X169677571Y-110052005D02*
X169915666Y-110175814D01*
X169915666Y-110175814D02*
X170391857Y-110175814D01*
X170391857Y-110175814D02*
X170629952Y-110052005D01*
X170629952Y-110052005D02*
X170749000Y-109928195D01*
X170749000Y-109928195D02*
X170868047Y-109680576D01*
X170868047Y-109680576D02*
X170868047Y-109185338D01*
X170868047Y-109185338D02*
X170749000Y-108937719D01*
X170749000Y-108937719D02*
X170629952Y-108813910D01*
X170629952Y-108813910D02*
X170391857Y-108690100D01*
X170391857Y-108690100D02*
X169915666Y-108690100D01*
X169915666Y-108690100D02*
X169677571Y-108813910D01*
X169677571Y-108813910D02*
X169558523Y-108937719D01*
X169558523Y-108937719D02*
X169439476Y-109185338D01*
X168368047Y-107823434D02*
X168368047Y-106213910D01*
X168368047Y-106213910D02*
X169320428Y-107080577D01*
X169320428Y-107080577D02*
X169320428Y-106709148D01*
X169320428Y-106709148D02*
X169439476Y-106461529D01*
X169439476Y-106461529D02*
X169558523Y-106337720D01*
X169558523Y-106337720D02*
X169796619Y-106213910D01*
X169796619Y-106213910D02*
X170391857Y-106213910D01*
X170391857Y-106213910D02*
X170629952Y-106337720D01*
X170629952Y-106337720D02*
X170749000Y-106461529D01*
X170749000Y-106461529D02*
X170868047Y-106709148D01*
X170868047Y-106709148D02*
X170868047Y-107452005D01*
X170868047Y-107452005D02*
X170749000Y-107699624D01*
X170749000Y-107699624D02*
X170629952Y-107823434D01*
X168368047Y-105347244D02*
X168368047Y-103613911D01*
X168368047Y-103613911D02*
X170868047Y-104728196D01*
X169915666Y-102623435D02*
X169915666Y-100642483D01*
X168368047Y-99652006D02*
X168368047Y-97918673D01*
X168368047Y-97918673D02*
X170868047Y-99032958D01*
X168606142Y-97052006D02*
X168487095Y-96928197D01*
X168487095Y-96928197D02*
X168368047Y-96680578D01*
X168368047Y-96680578D02*
X168368047Y-96061530D01*
X168368047Y-96061530D02*
X168487095Y-95813911D01*
X168487095Y-95813911D02*
X168606142Y-95690102D01*
X168606142Y-95690102D02*
X168844238Y-95566292D01*
X168844238Y-95566292D02*
X169082333Y-95566292D01*
X169082333Y-95566292D02*
X169439476Y-95690102D01*
X169439476Y-95690102D02*
X170868047Y-97175816D01*
X170868047Y-97175816D02*
X170868047Y-95566292D01*
X170868047Y-94328197D02*
X170868047Y-93832959D01*
X170868047Y-93832959D02*
X170749000Y-93585340D01*
X170749000Y-93585340D02*
X170629952Y-93461531D01*
X170629952Y-93461531D02*
X170272809Y-93213912D01*
X170272809Y-93213912D02*
X169796619Y-93090102D01*
X169796619Y-93090102D02*
X168844238Y-93090102D01*
X168844238Y-93090102D02*
X168606142Y-93213912D01*
X168606142Y-93213912D02*
X168487095Y-93337721D01*
X168487095Y-93337721D02*
X168368047Y-93585340D01*
X168368047Y-93585340D02*
X168368047Y-94080578D01*
X168368047Y-94080578D02*
X168487095Y-94328197D01*
X168487095Y-94328197D02*
X168606142Y-94452007D01*
X168606142Y-94452007D02*
X168844238Y-94575816D01*
X168844238Y-94575816D02*
X169439476Y-94575816D01*
X169439476Y-94575816D02*
X169677571Y-94452007D01*
X169677571Y-94452007D02*
X169796619Y-94328197D01*
X169796619Y-94328197D02*
X169915666Y-94080578D01*
X169915666Y-94080578D02*
X169915666Y-93585340D01*
X169915666Y-93585340D02*
X169796619Y-93337721D01*
X169796619Y-93337721D02*
X169677571Y-93213912D01*
X169677571Y-93213912D02*
X169439476Y-93090102D01*
X170868047Y-91852007D02*
X170868047Y-91356769D01*
X170868047Y-91356769D02*
X170749000Y-91109150D01*
X170749000Y-91109150D02*
X170629952Y-90985341D01*
X170629952Y-90985341D02*
X170272809Y-90737722D01*
X170272809Y-90737722D02*
X169796619Y-90613912D01*
X169796619Y-90613912D02*
X168844238Y-90613912D01*
X168844238Y-90613912D02*
X168606142Y-90737722D01*
X168606142Y-90737722D02*
X168487095Y-90861531D01*
X168487095Y-90861531D02*
X168368047Y-91109150D01*
X168368047Y-91109150D02*
X168368047Y-91604388D01*
X168368047Y-91604388D02*
X168487095Y-91852007D01*
X168487095Y-91852007D02*
X168606142Y-91975817D01*
X168606142Y-91975817D02*
X168844238Y-92099626D01*
X168844238Y-92099626D02*
X169439476Y-92099626D01*
X169439476Y-92099626D02*
X169677571Y-91975817D01*
X169677571Y-91975817D02*
X169796619Y-91852007D01*
X169796619Y-91852007D02*
X169915666Y-91604388D01*
X169915666Y-91604388D02*
X169915666Y-91109150D01*
X169915666Y-91109150D02*
X169796619Y-90861531D01*
X169796619Y-90861531D02*
X169677571Y-90737722D01*
X169677571Y-90737722D02*
X169439476Y-90613912D01*
D11*
X163357956Y-79427742D02*
X163448432Y-79342028D01*
X163448432Y-79342028D02*
X163629385Y-79256314D01*
X163629385Y-79256314D02*
X164081766Y-79256314D01*
X164081766Y-79256314D02*
X164262718Y-79342028D01*
X164262718Y-79342028D02*
X164353194Y-79427742D01*
X164353194Y-79427742D02*
X164443671Y-79599171D01*
X164443671Y-79599171D02*
X164443671Y-79770600D01*
X164443671Y-79770600D02*
X164353194Y-80027742D01*
X164353194Y-80027742D02*
X163267480Y-81056314D01*
X163267480Y-81056314D02*
X164443671Y-81056314D01*
%TO.C,C4*%
X143983333Y-122437885D02*
X143892857Y-122523600D01*
X143892857Y-122523600D02*
X143621428Y-122609314D01*
X143621428Y-122609314D02*
X143440476Y-122609314D01*
X143440476Y-122609314D02*
X143169047Y-122523600D01*
X143169047Y-122523600D02*
X142988095Y-122352171D01*
X142988095Y-122352171D02*
X142897618Y-122180742D01*
X142897618Y-122180742D02*
X142807142Y-121837885D01*
X142807142Y-121837885D02*
X142807142Y-121580742D01*
X142807142Y-121580742D02*
X142897618Y-121237885D01*
X142897618Y-121237885D02*
X142988095Y-121066457D01*
X142988095Y-121066457D02*
X143169047Y-120895028D01*
X143169047Y-120895028D02*
X143440476Y-120809314D01*
X143440476Y-120809314D02*
X143621428Y-120809314D01*
X143621428Y-120809314D02*
X143892857Y-120895028D01*
X143892857Y-120895028D02*
X143983333Y-120980742D01*
X145611904Y-121409314D02*
X145611904Y-122609314D01*
X145159523Y-120723600D02*
X144707142Y-122009314D01*
X144707142Y-122009314D02*
X145883333Y-122009314D01*
%TO.C,IC1*%
X156909314Y-103354762D02*
X155109314Y-103354762D01*
X156737885Y-101364285D02*
X156823600Y-101454761D01*
X156823600Y-101454761D02*
X156909314Y-101726190D01*
X156909314Y-101726190D02*
X156909314Y-101907142D01*
X156909314Y-101907142D02*
X156823600Y-102178571D01*
X156823600Y-102178571D02*
X156652171Y-102359523D01*
X156652171Y-102359523D02*
X156480742Y-102450000D01*
X156480742Y-102450000D02*
X156137885Y-102540476D01*
X156137885Y-102540476D02*
X155880742Y-102540476D01*
X155880742Y-102540476D02*
X155537885Y-102450000D01*
X155537885Y-102450000D02*
X155366457Y-102359523D01*
X155366457Y-102359523D02*
X155195028Y-102178571D01*
X155195028Y-102178571D02*
X155109314Y-101907142D01*
X155109314Y-101907142D02*
X155109314Y-101726190D01*
X155109314Y-101726190D02*
X155195028Y-101454761D01*
X155195028Y-101454761D02*
X155280742Y-101364285D01*
X156909314Y-99554761D02*
X156909314Y-100640476D01*
X156909314Y-100097619D02*
X155109314Y-100097619D01*
X155109314Y-100097619D02*
X155366457Y-100278571D01*
X155366457Y-100278571D02*
X155537885Y-100459523D01*
X155537885Y-100459523D02*
X155623600Y-100640476D01*
%TO.C,R2*%
X110483333Y-115209314D02*
X109849999Y-114352171D01*
X109397618Y-115209314D02*
X109397618Y-113409314D01*
X109397618Y-113409314D02*
X110121428Y-113409314D01*
X110121428Y-113409314D02*
X110302380Y-113495028D01*
X110302380Y-113495028D02*
X110392857Y-113580742D01*
X110392857Y-113580742D02*
X110483333Y-113752171D01*
X110483333Y-113752171D02*
X110483333Y-114009314D01*
X110483333Y-114009314D02*
X110392857Y-114180742D01*
X110392857Y-114180742D02*
X110302380Y-114266457D01*
X110302380Y-114266457D02*
X110121428Y-114352171D01*
X110121428Y-114352171D02*
X109397618Y-114352171D01*
X111207142Y-113580742D02*
X111297618Y-113495028D01*
X111297618Y-113495028D02*
X111478571Y-113409314D01*
X111478571Y-113409314D02*
X111930952Y-113409314D01*
X111930952Y-113409314D02*
X112111904Y-113495028D01*
X112111904Y-113495028D02*
X112202380Y-113580742D01*
X112202380Y-113580742D02*
X112292857Y-113752171D01*
X112292857Y-113752171D02*
X112292857Y-113923600D01*
X112292857Y-113923600D02*
X112202380Y-114180742D01*
X112202380Y-114180742D02*
X111116666Y-115209314D01*
X111116666Y-115209314D02*
X112292857Y-115209314D01*
%TO.C,R1*%
X137009314Y-92616666D02*
X136152171Y-93250000D01*
X137009314Y-93702381D02*
X135209314Y-93702381D01*
X135209314Y-93702381D02*
X135209314Y-92978571D01*
X135209314Y-92978571D02*
X135295028Y-92797619D01*
X135295028Y-92797619D02*
X135380742Y-92707142D01*
X135380742Y-92707142D02*
X135552171Y-92616666D01*
X135552171Y-92616666D02*
X135809314Y-92616666D01*
X135809314Y-92616666D02*
X135980742Y-92707142D01*
X135980742Y-92707142D02*
X136066457Y-92797619D01*
X136066457Y-92797619D02*
X136152171Y-92978571D01*
X136152171Y-92978571D02*
X136152171Y-93702381D01*
X137009314Y-90807142D02*
X137009314Y-91892857D01*
X137009314Y-91350000D02*
X135209314Y-91350000D01*
X135209314Y-91350000D02*
X135466457Y-91530952D01*
X135466457Y-91530952D02*
X135637885Y-91711904D01*
X135637885Y-91711904D02*
X135723600Y-91892857D01*
%TO.C,IC2*%
X139209314Y-112154762D02*
X137409314Y-112154762D01*
X139037885Y-110164285D02*
X139123600Y-110254761D01*
X139123600Y-110254761D02*
X139209314Y-110526190D01*
X139209314Y-110526190D02*
X139209314Y-110707142D01*
X139209314Y-110707142D02*
X139123600Y-110978571D01*
X139123600Y-110978571D02*
X138952171Y-111159523D01*
X138952171Y-111159523D02*
X138780742Y-111250000D01*
X138780742Y-111250000D02*
X138437885Y-111340476D01*
X138437885Y-111340476D02*
X138180742Y-111340476D01*
X138180742Y-111340476D02*
X137837885Y-111250000D01*
X137837885Y-111250000D02*
X137666457Y-111159523D01*
X137666457Y-111159523D02*
X137495028Y-110978571D01*
X137495028Y-110978571D02*
X137409314Y-110707142D01*
X137409314Y-110707142D02*
X137409314Y-110526190D01*
X137409314Y-110526190D02*
X137495028Y-110254761D01*
X137495028Y-110254761D02*
X137580742Y-110164285D01*
X137580742Y-109440476D02*
X137495028Y-109350000D01*
X137495028Y-109350000D02*
X137409314Y-109169047D01*
X137409314Y-109169047D02*
X137409314Y-108716666D01*
X137409314Y-108716666D02*
X137495028Y-108535714D01*
X137495028Y-108535714D02*
X137580742Y-108445238D01*
X137580742Y-108445238D02*
X137752171Y-108354761D01*
X137752171Y-108354761D02*
X137923600Y-108354761D01*
X137923600Y-108354761D02*
X138180742Y-108445238D01*
X138180742Y-108445238D02*
X139209314Y-109530952D01*
X139209314Y-109530952D02*
X139209314Y-108354761D01*
%TO.C,C2*%
X151917885Y-99216666D02*
X152003600Y-99307142D01*
X152003600Y-99307142D02*
X152089314Y-99578571D01*
X152089314Y-99578571D02*
X152089314Y-99759523D01*
X152089314Y-99759523D02*
X152003600Y-100030952D01*
X152003600Y-100030952D02*
X151832171Y-100211904D01*
X151832171Y-100211904D02*
X151660742Y-100302381D01*
X151660742Y-100302381D02*
X151317885Y-100392857D01*
X151317885Y-100392857D02*
X151060742Y-100392857D01*
X151060742Y-100392857D02*
X150717885Y-100302381D01*
X150717885Y-100302381D02*
X150546457Y-100211904D01*
X150546457Y-100211904D02*
X150375028Y-100030952D01*
X150375028Y-100030952D02*
X150289314Y-99759523D01*
X150289314Y-99759523D02*
X150289314Y-99578571D01*
X150289314Y-99578571D02*
X150375028Y-99307142D01*
X150375028Y-99307142D02*
X150460742Y-99216666D01*
X150460742Y-98492857D02*
X150375028Y-98402381D01*
X150375028Y-98402381D02*
X150289314Y-98221428D01*
X150289314Y-98221428D02*
X150289314Y-97769047D01*
X150289314Y-97769047D02*
X150375028Y-97588095D01*
X150375028Y-97588095D02*
X150460742Y-97497619D01*
X150460742Y-97497619D02*
X150632171Y-97407142D01*
X150632171Y-97407142D02*
X150803600Y-97407142D01*
X150803600Y-97407142D02*
X151060742Y-97497619D01*
X151060742Y-97497619D02*
X152089314Y-98583333D01*
X152089314Y-98583333D02*
X152089314Y-97407142D01*
%TO.C,C1*%
X177450954Y-112932885D02*
X177360478Y-113018600D01*
X177360478Y-113018600D02*
X177089049Y-113104314D01*
X177089049Y-113104314D02*
X176908097Y-113104314D01*
X176908097Y-113104314D02*
X176636668Y-113018600D01*
X176636668Y-113018600D02*
X176455716Y-112847171D01*
X176455716Y-112847171D02*
X176365239Y-112675742D01*
X176365239Y-112675742D02*
X176274763Y-112332885D01*
X176274763Y-112332885D02*
X176274763Y-112075742D01*
X176274763Y-112075742D02*
X176365239Y-111732885D01*
X176365239Y-111732885D02*
X176455716Y-111561457D01*
X176455716Y-111561457D02*
X176636668Y-111390028D01*
X176636668Y-111390028D02*
X176908097Y-111304314D01*
X176908097Y-111304314D02*
X177089049Y-111304314D01*
X177089049Y-111304314D02*
X177360478Y-111390028D01*
X177360478Y-111390028D02*
X177450954Y-111475742D01*
X179260478Y-113104314D02*
X178174763Y-113104314D01*
X178717620Y-113104314D02*
X178717620Y-111304314D01*
X178717620Y-111304314D02*
X178536668Y-111561457D01*
X178536668Y-111561457D02*
X178355716Y-111732885D01*
X178355716Y-111732885D02*
X178174763Y-111818600D01*
%TO.C,TR1*%
X116602381Y-111009314D02*
X117688095Y-111009314D01*
X117145238Y-112809314D02*
X117145238Y-111009314D01*
X119407143Y-112809314D02*
X118773809Y-111952171D01*
X118321428Y-112809314D02*
X118321428Y-111009314D01*
X118321428Y-111009314D02*
X119045238Y-111009314D01*
X119045238Y-111009314D02*
X119226190Y-111095028D01*
X119226190Y-111095028D02*
X119316667Y-111180742D01*
X119316667Y-111180742D02*
X119407143Y-111352171D01*
X119407143Y-111352171D02*
X119407143Y-111609314D01*
X119407143Y-111609314D02*
X119316667Y-111780742D01*
X119316667Y-111780742D02*
X119226190Y-111866457D01*
X119226190Y-111866457D02*
X119045238Y-111952171D01*
X119045238Y-111952171D02*
X118321428Y-111952171D01*
X121216667Y-112809314D02*
X120130952Y-112809314D01*
X120673809Y-112809314D02*
X120673809Y-111009314D01*
X120673809Y-111009314D02*
X120492857Y-111266457D01*
X120492857Y-111266457D02*
X120311905Y-111437885D01*
X120311905Y-111437885D02*
X120130952Y-111523600D01*
%TO.C,C3*%
X161683333Y-122337885D02*
X161592857Y-122423600D01*
X161592857Y-122423600D02*
X161321428Y-122509314D01*
X161321428Y-122509314D02*
X161140476Y-122509314D01*
X161140476Y-122509314D02*
X160869047Y-122423600D01*
X160869047Y-122423600D02*
X160688095Y-122252171D01*
X160688095Y-122252171D02*
X160597618Y-122080742D01*
X160597618Y-122080742D02*
X160507142Y-121737885D01*
X160507142Y-121737885D02*
X160507142Y-121480742D01*
X160507142Y-121480742D02*
X160597618Y-121137885D01*
X160597618Y-121137885D02*
X160688095Y-120966457D01*
X160688095Y-120966457D02*
X160869047Y-120795028D01*
X160869047Y-120795028D02*
X161140476Y-120709314D01*
X161140476Y-120709314D02*
X161321428Y-120709314D01*
X161321428Y-120709314D02*
X161592857Y-120795028D01*
X161592857Y-120795028D02*
X161683333Y-120880742D01*
X162316666Y-120709314D02*
X163492857Y-120709314D01*
X163492857Y-120709314D02*
X162859523Y-121395028D01*
X162859523Y-121395028D02*
X163130952Y-121395028D01*
X163130952Y-121395028D02*
X163311904Y-121480742D01*
X163311904Y-121480742D02*
X163402380Y-121566457D01*
X163402380Y-121566457D02*
X163492857Y-121737885D01*
X163492857Y-121737885D02*
X163492857Y-122166457D01*
X163492857Y-122166457D02*
X163402380Y-122337885D01*
X163402380Y-122337885D02*
X163311904Y-122423600D01*
X163311904Y-122423600D02*
X163130952Y-122509314D01*
X163130952Y-122509314D02*
X162588095Y-122509314D01*
X162588095Y-122509314D02*
X162407142Y-122423600D01*
X162407142Y-122423600D02*
X162316666Y-122337885D01*
D13*
%TO.C,C4*%
X142240000Y-119195000D02*
X142930000Y-119195000D01*
X142930000Y-117775000D02*
X142930000Y-120615000D01*
X142930000Y-120615000D02*
X146970000Y-120615000D01*
X146970000Y-117775000D02*
X142930000Y-117775000D01*
X146970000Y-120615000D02*
X146970000Y-117775000D01*
X147660000Y-119195000D02*
X146970000Y-119195000D01*
%TO.C,G\u002A\u002A\u002A*%
G36*
X152833817Y-116159856D02*
G01*
X152833814Y-116361780D01*
X152833892Y-116537274D01*
X152834183Y-116688255D01*
X152834819Y-116816642D01*
X152835930Y-116924353D01*
X152837650Y-117013305D01*
X152840109Y-117085416D01*
X152843438Y-117142605D01*
X152847771Y-117186789D01*
X152853237Y-117219886D01*
X152859969Y-117243814D01*
X152868098Y-117260491D01*
X152877756Y-117271835D01*
X152889075Y-117279764D01*
X152902185Y-117286195D01*
X152911378Y-117290321D01*
X152942945Y-117302727D01*
X152962051Y-117307255D01*
X152964973Y-117293283D01*
X152967582Y-117252176D01*
X152969857Y-117185144D01*
X152971778Y-117093399D01*
X152973328Y-116978151D01*
X152974486Y-116840611D01*
X152975232Y-116681991D01*
X152975548Y-116503501D01*
X152975558Y-116463895D01*
X152975558Y-115620536D01*
X153329911Y-115620536D01*
X153684263Y-115620536D01*
X153684263Y-116818699D01*
X153684263Y-118016863D01*
X153099252Y-118012868D01*
X152514240Y-118008873D01*
X152420701Y-117962808D01*
X152317316Y-117896479D01*
X152232468Y-117809295D01*
X152169907Y-117706612D01*
X152132199Y-117626172D01*
X152128429Y-116375307D01*
X152124659Y-115124442D01*
X152479238Y-115124442D01*
X152833817Y-115124442D01*
X152833817Y-116159856D01*
G37*
G36*
X155398382Y-116361133D02*
G01*
X155398127Y-116585489D01*
X155397713Y-116783099D01*
X155397117Y-116955567D01*
X155396315Y-117104495D01*
X155395281Y-117231486D01*
X155393991Y-117338142D01*
X155392421Y-117426066D01*
X155390546Y-117496861D01*
X155388341Y-117552129D01*
X155385782Y-117593473D01*
X155382845Y-117622496D01*
X155379505Y-117640801D01*
X155378767Y-117643379D01*
X155329593Y-117754525D01*
X155257289Y-117850715D01*
X155164344Y-117929127D01*
X155089201Y-117971522D01*
X155009542Y-118008873D01*
X154424860Y-118012868D01*
X153840179Y-118016863D01*
X153840179Y-116818699D01*
X153840179Y-115620536D01*
X154194531Y-115620536D01*
X154548884Y-115620536D01*
X154548884Y-116463895D01*
X154548856Y-116642522D01*
X154548889Y-116794799D01*
X154549155Y-116922727D01*
X154549828Y-117028304D01*
X154551079Y-117113531D01*
X154553082Y-117180405D01*
X154556009Y-117230927D01*
X154560034Y-117267095D01*
X154565330Y-117290909D01*
X154572068Y-117304367D01*
X154580423Y-117309470D01*
X154590566Y-117308216D01*
X154602671Y-117302604D01*
X154616911Y-117294635D01*
X154620540Y-117292660D01*
X154633499Y-117285597D01*
X154644754Y-117277948D01*
X154654425Y-117267783D01*
X154662631Y-117253171D01*
X154669493Y-117232181D01*
X154675131Y-117202883D01*
X154679665Y-117163346D01*
X154683216Y-117111641D01*
X154685903Y-117045836D01*
X154687847Y-116964001D01*
X154689168Y-116864205D01*
X154689986Y-116744518D01*
X154690422Y-116603010D01*
X154690595Y-116437750D01*
X154690626Y-116246807D01*
X154690625Y-116166943D01*
X154690625Y-115138616D01*
X155044978Y-115138616D01*
X155399330Y-115138616D01*
X155398382Y-116361133D01*
G37*
G36*
X152833817Y-112198193D02*
G01*
X152833816Y-112396596D01*
X152833905Y-112568604D01*
X152834223Y-112716167D01*
X152834907Y-112841239D01*
X152836097Y-112945771D01*
X152837930Y-113031716D01*
X152840544Y-113101025D01*
X152844078Y-113155651D01*
X152848671Y-113197546D01*
X152854460Y-113228663D01*
X152861583Y-113250952D01*
X152870180Y-113266367D01*
X152880387Y-113276859D01*
X152892344Y-113284381D01*
X152906189Y-113290884D01*
X152911378Y-113293223D01*
X152928121Y-113297107D01*
X152961021Y-113300420D01*
X153011606Y-113303192D01*
X153081404Y-113305453D01*
X153171946Y-113307234D01*
X153284759Y-113308564D01*
X153421371Y-113309475D01*
X153583313Y-113309995D01*
X153766821Y-113310156D01*
X153941301Y-113310094D01*
X154089638Y-113309866D01*
X154214038Y-113309414D01*
X154316707Y-113308677D01*
X154399848Y-113307595D01*
X154465669Y-113306109D01*
X154516374Y-113304158D01*
X154554169Y-113301684D01*
X154581259Y-113298625D01*
X154599849Y-113294922D01*
X154612145Y-113290515D01*
X154618098Y-113287043D01*
X154644879Y-113263051D01*
X154664461Y-113231223D01*
X154677831Y-113187248D01*
X154685975Y-113126817D01*
X154689882Y-113045619D01*
X154690625Y-112970433D01*
X154690625Y-112771540D01*
X154619754Y-112771540D01*
X154548884Y-112771540D01*
X154548884Y-112977065D01*
X154548884Y-113182589D01*
X154187281Y-113182589D01*
X153825679Y-113182589D01*
X153829385Y-112619169D01*
X153833091Y-112055748D01*
X154616211Y-112052084D01*
X155399330Y-112048421D01*
X155398411Y-112831660D01*
X155398185Y-113000668D01*
X155397877Y-113143754D01*
X155397399Y-113263348D01*
X155396664Y-113361877D01*
X155395584Y-113441768D01*
X155394071Y-113505449D01*
X155392036Y-113555348D01*
X155389392Y-113593892D01*
X155386052Y-113623510D01*
X155381927Y-113646629D01*
X155376930Y-113665676D01*
X155370972Y-113683079D01*
X155367243Y-113692857D01*
X155327923Y-113765727D01*
X155268970Y-113840014D01*
X155197727Y-113908428D01*
X155121539Y-113963673D01*
X155066239Y-113991810D01*
X154981194Y-114025949D01*
X153799533Y-114029885D01*
X153580549Y-114030604D01*
X153388006Y-114031141D01*
X153220000Y-114031396D01*
X153074624Y-114031265D01*
X152949972Y-114030648D01*
X152844139Y-114029442D01*
X152755219Y-114027546D01*
X152681305Y-114024858D01*
X152620491Y-114021276D01*
X152570873Y-114016699D01*
X152530544Y-114011025D01*
X152497597Y-114004152D01*
X152470128Y-113995978D01*
X152446229Y-113986402D01*
X152423996Y-113975321D01*
X152401522Y-113962635D01*
X152387636Y-113954507D01*
X152309963Y-113896207D01*
X152238353Y-113818840D01*
X152180983Y-113731607D01*
X152169907Y-113709514D01*
X152132199Y-113629074D01*
X152128423Y-112413644D01*
X152124647Y-111198214D01*
X152479232Y-111198214D01*
X152833817Y-111198214D01*
X152833817Y-112198193D01*
G37*
G36*
X155398366Y-107536415D02*
G01*
X155402080Y-107546029D01*
X155405134Y-107564039D01*
X155407591Y-107592552D01*
X155409517Y-107633675D01*
X155410975Y-107689518D01*
X155412029Y-107762186D01*
X155412744Y-107853789D01*
X155413185Y-107966432D01*
X155413414Y-108102225D01*
X155413498Y-108263274D01*
X155413504Y-108347702D01*
X155413504Y-109171317D01*
X155140653Y-109172180D01*
X154867801Y-109173042D01*
X155565745Y-109409596D01*
X156263689Y-109646150D01*
X156263820Y-110060742D01*
X156263609Y-110185035D01*
X156262819Y-110283479D01*
X156261341Y-110358570D01*
X156259068Y-110412803D01*
X156255893Y-110448673D01*
X156251708Y-110468676D01*
X156246406Y-110475307D01*
X156245978Y-110475335D01*
X156229385Y-110470907D01*
X156188587Y-110458202D01*
X156126210Y-110438085D01*
X156044882Y-110411425D01*
X155947229Y-110379087D01*
X155835879Y-110341939D01*
X155713460Y-110300848D01*
X155582597Y-110256680D01*
X155554990Y-110247332D01*
X155442157Y-110209117D01*
X155305607Y-110162885D01*
X155148478Y-110109699D01*
X154973909Y-110050621D01*
X154785038Y-109986711D01*
X154604229Y-109925538D01*
X154585003Y-109919033D01*
X154376943Y-109848648D01*
X154163995Y-109776617D01*
X153949300Y-109704003D01*
X153735994Y-109631867D01*
X153527216Y-109561271D01*
X153504111Y-109553459D01*
X153313175Y-109488830D01*
X153129283Y-109426447D01*
X152954284Y-109366945D01*
X152790024Y-109310957D01*
X152638352Y-109259118D01*
X152501113Y-109212063D01*
X152380157Y-109170425D01*
X152277330Y-109134838D01*
X152194479Y-109105938D01*
X152133452Y-109084358D01*
X152096097Y-109070733D01*
X152084845Y-109066178D01*
X152020253Y-109019393D01*
X151978232Y-108960791D01*
X151958284Y-108895030D01*
X151959258Y-108854164D01*
X153967745Y-108854164D01*
X153975193Y-108860560D01*
X154006231Y-108874525D01*
X154057495Y-108894845D01*
X154125620Y-108920309D01*
X154207244Y-108949703D01*
X154299001Y-108981816D01*
X154397527Y-109015433D01*
X154499460Y-109049344D01*
X154594950Y-109080266D01*
X154604229Y-109081293D01*
X154610863Y-109074924D01*
X154615291Y-109057278D01*
X154617952Y-109024474D01*
X154619285Y-108972630D01*
X154619728Y-108897865D01*
X154619754Y-108860887D01*
X154619260Y-108772324D01*
X154617613Y-108709007D01*
X154614565Y-108667845D01*
X154609868Y-108645749D01*
X154603274Y-108639632D01*
X154602037Y-108639926D01*
X154583901Y-108646116D01*
X154543015Y-108659909D01*
X154483513Y-108679917D01*
X154409528Y-108704749D01*
X154325194Y-108733018D01*
X154286663Y-108745922D01*
X154198864Y-108775383D01*
X154119383Y-108802174D01*
X154052420Y-108824869D01*
X154002173Y-108842044D01*
X153972840Y-108852273D01*
X153967745Y-108854164D01*
X151959258Y-108854164D01*
X151959911Y-108826766D01*
X151982613Y-108760659D01*
X152025894Y-108701365D01*
X152089253Y-108653542D01*
X152131048Y-108634349D01*
X152148096Y-108628178D01*
X152175771Y-108618470D01*
X152215071Y-108604887D01*
X152266993Y-108587094D01*
X152332537Y-108564753D01*
X152412701Y-108537527D01*
X152508482Y-108505079D01*
X152620880Y-108467071D01*
X152750893Y-108423167D01*
X152899518Y-108373029D01*
X153067755Y-108316321D01*
X153256601Y-108252706D01*
X153467055Y-108181845D01*
X153700115Y-108103404D01*
X153956780Y-108017043D01*
X154238048Y-107922427D01*
X154544917Y-107819217D01*
X154633929Y-107789283D01*
X154772130Y-107742779D01*
X154902682Y-107698798D01*
X155023033Y-107658201D01*
X155130628Y-107621852D01*
X155222917Y-107590615D01*
X155297346Y-107565354D01*
X155351364Y-107546931D01*
X155382418Y-107536211D01*
X155388700Y-107533945D01*
X155393927Y-107533090D01*
X155398366Y-107536415D01*
G37*
G36*
X151983370Y-116347524D02*
G01*
X151983425Y-116566268D01*
X151983607Y-116758487D01*
X151983949Y-116926008D01*
X151984480Y-117070653D01*
X151985230Y-117194248D01*
X151986230Y-117298618D01*
X151987511Y-117385585D01*
X151989102Y-117456976D01*
X151991034Y-117514613D01*
X151993337Y-117560323D01*
X151996042Y-117595928D01*
X151999179Y-117623254D01*
X152002778Y-117644125D01*
X152005098Y-117654025D01*
X152051492Y-117778713D01*
X152120837Y-117891361D01*
X152209687Y-117988793D01*
X152314595Y-118067832D01*
X152432117Y-118125303D01*
X152550610Y-118156758D01*
X152581968Y-118159486D01*
X152638955Y-118161944D01*
X152718854Y-118164134D01*
X152818947Y-118166054D01*
X152936516Y-118167703D01*
X153068843Y-118169082D01*
X153213211Y-118170188D01*
X153366902Y-118171023D01*
X153527198Y-118171585D01*
X153691382Y-118171873D01*
X153856735Y-118171887D01*
X154020540Y-118171627D01*
X154180080Y-118171092D01*
X154332636Y-118170280D01*
X154475491Y-118169192D01*
X154605927Y-118167827D01*
X154721227Y-118166185D01*
X154818672Y-118164264D01*
X154895546Y-118162065D01*
X154949130Y-118159586D01*
X154974107Y-118157294D01*
X155097156Y-118124358D01*
X155212627Y-118067113D01*
X155316614Y-117989178D01*
X155405212Y-117894173D01*
X155474514Y-117785718D01*
X155520616Y-117667430D01*
X155526039Y-117645849D01*
X155528756Y-117619514D01*
X155531224Y-117565743D01*
X155533431Y-117485448D01*
X155535368Y-117379540D01*
X155537024Y-117248930D01*
X155538388Y-117094531D01*
X155539451Y-116917252D01*
X155540201Y-116718007D01*
X155540629Y-116497705D01*
X155540725Y-116361133D01*
X155541071Y-115138616D01*
X155902511Y-115138616D01*
X156263951Y-115138616D01*
X156262498Y-116368220D01*
X156262114Y-116601380D01*
X156261533Y-116807666D01*
X156260734Y-116988553D01*
X156259693Y-117145516D01*
X156258391Y-117280027D01*
X156256805Y-117393563D01*
X156254913Y-117487596D01*
X156252695Y-117563601D01*
X156250128Y-117623053D01*
X156247191Y-117667426D01*
X156243862Y-117698194D01*
X156242933Y-117704130D01*
X156211701Y-117852850D01*
X156170088Y-117984360D01*
X156114033Y-118109083D01*
X156039474Y-118237445D01*
X156028477Y-118254532D01*
X155911639Y-118408674D01*
X155774249Y-118543988D01*
X155617891Y-118659355D01*
X155444152Y-118753655D01*
X155254615Y-118825771D01*
X155195684Y-118842705D01*
X155175743Y-118847926D01*
X155156219Y-118852520D01*
X155135259Y-118856528D01*
X155111009Y-118859990D01*
X155081617Y-118862945D01*
X155045230Y-118865435D01*
X154999994Y-118867498D01*
X154944056Y-118869176D01*
X154875563Y-118870507D01*
X154792662Y-118871532D01*
X154693500Y-118872290D01*
X154576224Y-118872823D01*
X154438980Y-118873169D01*
X154279916Y-118873370D01*
X154097178Y-118873464D01*
X153888914Y-118873492D01*
X153769308Y-118873494D01*
X153545248Y-118873462D01*
X153347698Y-118873346D01*
X153174822Y-118873112D01*
X153024781Y-118872729D01*
X152895739Y-118872163D01*
X152785859Y-118871382D01*
X152693301Y-118870353D01*
X152616230Y-118869043D01*
X152552807Y-118867421D01*
X152501196Y-118865452D01*
X152459558Y-118863106D01*
X152426057Y-118860348D01*
X152398855Y-118857148D01*
X152376115Y-118853470D01*
X152355998Y-118849284D01*
X152351897Y-118848329D01*
X152169944Y-118791292D01*
X151995533Y-118709283D01*
X151832732Y-118605019D01*
X151685606Y-118481222D01*
X151558223Y-118340609D01*
X151523811Y-118294635D01*
X151447281Y-118171424D01*
X151379011Y-118030258D01*
X151323692Y-117881304D01*
X151306997Y-117824610D01*
X151268432Y-117682869D01*
X151263766Y-116403655D01*
X151259099Y-115124442D01*
X151621235Y-115124442D01*
X151983370Y-115124442D01*
X151983370Y-116347524D01*
G37*
G36*
X152339514Y-119183091D02*
G01*
X152429607Y-119186555D01*
X152523665Y-119189436D01*
X152611578Y-119191468D01*
X152683237Y-119192385D01*
X152694329Y-119192411D01*
X152833817Y-119192411D01*
X152833817Y-120298923D01*
X152834009Y-120537160D01*
X152834586Y-120747485D01*
X152835547Y-120929843D01*
X152836891Y-121084176D01*
X152838618Y-121210430D01*
X152840726Y-121308549D01*
X152843214Y-121378475D01*
X152846084Y-121420154D01*
X152848490Y-121432852D01*
X152873505Y-121453489D01*
X152910646Y-121460250D01*
X152946654Y-121451883D01*
X152958549Y-121443259D01*
X152964268Y-121428329D01*
X152968713Y-121394942D01*
X152971976Y-121341037D01*
X152974150Y-121264554D01*
X152975328Y-121163432D01*
X152975615Y-121064102D01*
X152976554Y-120916166D01*
X152979664Y-120791729D01*
X152985460Y-120685990D01*
X152994457Y-120594148D01*
X153007172Y-120511402D01*
X153024119Y-120432951D01*
X153045814Y-120353994D01*
X153055079Y-120323907D01*
X153131033Y-120129414D01*
X153231386Y-119947168D01*
X153354076Y-119779249D01*
X153497038Y-119627740D01*
X153658209Y-119494721D01*
X153835525Y-119382273D01*
X154026924Y-119292478D01*
X154106313Y-119263588D01*
X154308953Y-119209891D01*
X154511850Y-119183240D01*
X154713003Y-119182423D01*
X154910412Y-119206227D01*
X155102076Y-119253441D01*
X155285993Y-119322852D01*
X155460162Y-119413248D01*
X155622582Y-119523416D01*
X155771253Y-119652145D01*
X155904173Y-119798223D01*
X156019341Y-119960437D01*
X156114755Y-120137574D01*
X156188416Y-120328424D01*
X156238322Y-120531773D01*
X156242752Y-120557780D01*
X156246662Y-120586021D01*
X156250077Y-120620633D01*
X156253030Y-120663518D01*
X156255551Y-120716578D01*
X156257670Y-120781712D01*
X156259419Y-120860823D01*
X156260829Y-120955812D01*
X156261930Y-121068579D01*
X156262753Y-121201027D01*
X156263330Y-121355055D01*
X156263690Y-121532566D01*
X156263865Y-121735461D01*
X156263894Y-121860687D01*
X156263951Y-123033594D01*
X155902511Y-123033594D01*
X155541071Y-123033594D01*
X155540825Y-121881948D01*
X155540776Y-121664073D01*
X155540637Y-121472548D01*
X155540273Y-121305373D01*
X155539547Y-121160551D01*
X155538323Y-121036082D01*
X155536466Y-120929968D01*
X155533839Y-120840211D01*
X155530306Y-120764810D01*
X155525731Y-120701769D01*
X155519979Y-120649088D01*
X155512913Y-120604768D01*
X155504398Y-120566811D01*
X155494297Y-120533218D01*
X155482474Y-120501991D01*
X155468794Y-120471131D01*
X155453120Y-120438639D01*
X155440939Y-120413954D01*
X155359194Y-120279508D01*
X155255546Y-120160733D01*
X155133522Y-120060778D01*
X154996652Y-119982788D01*
X154924498Y-119953281D01*
X154775216Y-119914578D01*
X154620375Y-119902424D01*
X154463652Y-119916568D01*
X154308723Y-119956756D01*
X154197215Y-120003202D01*
X154119225Y-120050676D01*
X154036140Y-120117082D01*
X153954778Y-120195629D01*
X153881955Y-120279524D01*
X153824491Y-120361976D01*
X153808812Y-120390123D01*
X153782380Y-120442610D01*
X153761029Y-120489017D01*
X153744128Y-120533273D01*
X153731043Y-120579305D01*
X153721142Y-120631038D01*
X153713793Y-120692402D01*
X153708364Y-120767323D01*
X153704223Y-120859728D01*
X153700735Y-120973545D01*
X153698115Y-121077567D01*
X153694869Y-121191550D01*
X153690890Y-121298576D01*
X153686400Y-121394552D01*
X153681618Y-121475388D01*
X153676766Y-121536992D01*
X153672062Y-121575273D01*
X153671035Y-121580302D01*
X153629535Y-121699805D01*
X153564463Y-121815950D01*
X153480494Y-121922945D01*
X153382300Y-122014997D01*
X153274553Y-122086314D01*
X153254676Y-122096419D01*
X153116684Y-122148617D01*
X152976735Y-122174054D01*
X152837727Y-122173897D01*
X152702560Y-122149315D01*
X152574135Y-122101475D01*
X152455351Y-122031544D01*
X152349108Y-121940690D01*
X152258306Y-121830082D01*
X152185844Y-121700886D01*
X152168209Y-121658919D01*
X152132199Y-121566574D01*
X152128192Y-120370172D01*
X152124186Y-119173771D01*
X152339514Y-119183091D01*
G37*
G36*
X151983865Y-120313496D02*
G01*
X151983970Y-120533230D01*
X151984177Y-120726613D01*
X151984627Y-120895642D01*
X151985463Y-121042314D01*
X151986825Y-121168628D01*
X151988854Y-121276579D01*
X151991694Y-121368166D01*
X151995484Y-121445385D01*
X152000368Y-121510234D01*
X152006485Y-121564710D01*
X152013979Y-121610811D01*
X152022989Y-121650532D01*
X152033659Y-121685873D01*
X152046129Y-121718829D01*
X152060541Y-121751398D01*
X152077036Y-121785578D01*
X152090055Y-121811848D01*
X152172427Y-121946784D01*
X152275944Y-122064205D01*
X152397928Y-122161958D01*
X152535700Y-122237893D01*
X152684423Y-122289312D01*
X152761332Y-122302442D01*
X152855116Y-122308945D01*
X152955088Y-122308823D01*
X153050562Y-122302079D01*
X153128804Y-122289204D01*
X153271723Y-122241329D01*
X153405596Y-122168681D01*
X153526577Y-122074354D01*
X153630818Y-121961444D01*
X153714473Y-121833046D01*
X153727537Y-121807534D01*
X153753027Y-121754027D01*
X153773588Y-121705563D01*
X153789837Y-121658123D01*
X153802394Y-121607687D01*
X153811878Y-121550236D01*
X153818907Y-121481751D01*
X153824101Y-121398211D01*
X153828078Y-121295598D01*
X153831457Y-121169892D01*
X153832471Y-121126011D01*
X153835395Y-121017092D01*
X153839031Y-120914016D01*
X153843159Y-120821171D01*
X153847557Y-120742947D01*
X153852001Y-120683731D01*
X153856271Y-120647913D01*
X153856791Y-120645257D01*
X153898344Y-120515866D01*
X153964444Y-120395090D01*
X154051732Y-120286558D01*
X154156848Y-120193897D01*
X154276433Y-120120734D01*
X154381971Y-120078137D01*
X154493958Y-120052844D01*
X154614869Y-120042729D01*
X154733206Y-120048166D01*
X154818085Y-120063910D01*
X154953711Y-120114271D01*
X155077513Y-120188501D01*
X155186270Y-120283461D01*
X155276762Y-120396009D01*
X155345770Y-120523004D01*
X155376717Y-120608851D01*
X155380814Y-120625354D01*
X155384393Y-120646381D01*
X155387488Y-120673814D01*
X155390134Y-120709531D01*
X155392363Y-120755413D01*
X155394211Y-120813341D01*
X155395711Y-120885194D01*
X155396897Y-120972854D01*
X155397803Y-121078200D01*
X155398463Y-121203113D01*
X155398912Y-121349472D01*
X155399182Y-121519160D01*
X155399309Y-121714054D01*
X155399330Y-121859716D01*
X155399330Y-123033594D01*
X155044978Y-123033594D01*
X154690625Y-123033594D01*
X154690625Y-121914643D01*
X154690625Y-120795692D01*
X154660649Y-120774697D01*
X154629326Y-120761477D01*
X154607497Y-120761700D01*
X154590223Y-120769005D01*
X154576717Y-120779766D01*
X154566515Y-120797246D01*
X154559156Y-120824706D01*
X154554177Y-120865408D01*
X154551118Y-120922615D01*
X154549515Y-120999589D01*
X154548907Y-121099591D01*
X154548827Y-121175951D01*
X154547870Y-121324737D01*
X154544720Y-121449795D01*
X154538880Y-121555698D01*
X154529856Y-121647015D01*
X154517152Y-121728318D01*
X154500271Y-121804176D01*
X154478718Y-121879162D01*
X154469484Y-121907529D01*
X154388384Y-122106650D01*
X154284081Y-122290920D01*
X154158428Y-122458746D01*
X154013279Y-122608535D01*
X153850487Y-122738695D01*
X153671907Y-122847632D01*
X153479391Y-122933754D01*
X153274794Y-122995468D01*
X153181303Y-123014500D01*
X153082230Y-123026242D01*
X152965948Y-123031213D01*
X152841763Y-123029719D01*
X152718985Y-123022068D01*
X152606923Y-123008568D01*
X152527809Y-122992914D01*
X152318212Y-122926492D01*
X152123258Y-122836417D01*
X151944307Y-122724080D01*
X151782722Y-122590873D01*
X151639863Y-122438187D01*
X151517091Y-122267413D01*
X151415767Y-122079943D01*
X151337253Y-121877168D01*
X151298829Y-121736663D01*
X151293623Y-121713264D01*
X151289055Y-121689753D01*
X151285074Y-121664164D01*
X151281629Y-121634529D01*
X151278669Y-121598879D01*
X151276144Y-121555248D01*
X151274001Y-121501667D01*
X151272191Y-121436170D01*
X151270662Y-121356788D01*
X151269363Y-121261553D01*
X151268243Y-121148499D01*
X151267251Y-121015657D01*
X151266336Y-120861059D01*
X151265447Y-120682739D01*
X151264534Y-120478728D01*
X151264198Y-120400754D01*
X151259027Y-119192411D01*
X151406334Y-119192411D01*
X151477058Y-119191733D01*
X151565586Y-119189879D01*
X151661414Y-119187120D01*
X151754033Y-119183723D01*
X151768505Y-119183111D01*
X151983370Y-119173811D01*
X151983865Y-120313496D01*
G37*
G36*
X156253821Y-106364527D02*
G01*
X156255400Y-106404830D01*
X156256895Y-106469676D01*
X156258290Y-106557163D01*
X156259568Y-106665389D01*
X156260715Y-106792450D01*
X156261713Y-106936446D01*
X156262548Y-107095473D01*
X156263203Y-107267629D01*
X156263662Y-107451012D01*
X156263910Y-107643718D01*
X156263951Y-107760994D01*
X156263951Y-109171317D01*
X155902511Y-109171317D01*
X155541071Y-109171317D01*
X155541071Y-108257087D01*
X155540948Y-108098975D01*
X155540592Y-107949525D01*
X155540025Y-107811100D01*
X155539267Y-107686063D01*
X155538341Y-107576777D01*
X155537266Y-107485605D01*
X155536065Y-107414910D01*
X155534757Y-107367054D01*
X155533366Y-107344400D01*
X155532889Y-107342857D01*
X155517378Y-107347337D01*
X155476976Y-107360339D01*
X155413614Y-107381207D01*
X155329222Y-107409285D01*
X155225731Y-107443915D01*
X155105073Y-107484442D01*
X154969176Y-107530210D01*
X154819972Y-107580561D01*
X154659392Y-107634840D01*
X154489366Y-107692389D01*
X154311824Y-107752554D01*
X154128697Y-107814677D01*
X153941916Y-107878102D01*
X153753411Y-107942172D01*
X153565113Y-108006231D01*
X153378953Y-108069624D01*
X153196860Y-108131692D01*
X153020766Y-108191781D01*
X152852601Y-108249233D01*
X152694296Y-108303392D01*
X152547780Y-108353603D01*
X152414986Y-108399207D01*
X152297843Y-108439550D01*
X152198282Y-108473974D01*
X152118234Y-108501824D01*
X152059628Y-108522442D01*
X152024397Y-108535173D01*
X152014664Y-108539046D01*
X151964168Y-108575603D01*
X151913378Y-108629351D01*
X151870301Y-108690375D01*
X151842945Y-108748759D01*
X151841574Y-108753380D01*
X151827955Y-108848234D01*
X151837621Y-108943342D01*
X151868563Y-109032377D01*
X151918774Y-109109012D01*
X151969237Y-109155543D01*
X151979963Y-109163010D01*
X151992146Y-109170516D01*
X152007454Y-109178657D01*
X152027553Y-109188025D01*
X152054111Y-109199213D01*
X152088795Y-109212817D01*
X152133272Y-109229428D01*
X152189209Y-109249642D01*
X152258274Y-109274051D01*
X152342133Y-109303249D01*
X152442453Y-109337830D01*
X152560902Y-109378387D01*
X152699147Y-109425514D01*
X152858855Y-109479805D01*
X153041692Y-109541853D01*
X153249327Y-109612252D01*
X153301562Y-109629958D01*
X153437547Y-109676050D01*
X153596235Y-109729841D01*
X153773480Y-109789924D01*
X153965139Y-109854895D01*
X154167067Y-109923349D01*
X154375120Y-109993881D01*
X154585153Y-110065086D01*
X154793022Y-110135559D01*
X154994583Y-110203894D01*
X155143291Y-110254313D01*
X155313581Y-110312031D01*
X155476022Y-110367054D01*
X155628630Y-110418713D01*
X155769420Y-110466336D01*
X155896406Y-110509253D01*
X156007604Y-110546794D01*
X156101028Y-110578289D01*
X156174694Y-110603067D01*
X156226616Y-110620458D01*
X156254810Y-110629792D01*
X156259502Y-110631250D01*
X156260680Y-110645052D01*
X156261660Y-110684972D01*
X156262450Y-110748780D01*
X156263059Y-110834247D01*
X156263494Y-110939143D01*
X156263764Y-111061237D01*
X156263876Y-111198302D01*
X156263840Y-111348106D01*
X156263664Y-111508420D01*
X156263354Y-111677015D01*
X156262921Y-111851662D01*
X156262372Y-112030129D01*
X156261714Y-112210188D01*
X156260958Y-112389610D01*
X156260109Y-112566163D01*
X156259178Y-112737619D01*
X156258171Y-112901749D01*
X156257098Y-113056322D01*
X156255966Y-113199109D01*
X156254784Y-113327880D01*
X156253560Y-113440405D01*
X156252301Y-113534455D01*
X156251017Y-113607801D01*
X156249716Y-113658212D01*
X156248405Y-113683459D01*
X156248265Y-113684569D01*
X156206084Y-113879141D01*
X156138787Y-114062149D01*
X156047829Y-114231922D01*
X155934659Y-114386787D01*
X155800732Y-114525070D01*
X155647499Y-114645099D01*
X155476412Y-114745202D01*
X155288924Y-114823704D01*
X155247502Y-114837321D01*
X155122935Y-114876395D01*
X153762221Y-114876395D01*
X152401507Y-114876395D01*
X152276940Y-114837321D01*
X152086207Y-114764310D01*
X151913724Y-114670271D01*
X151757461Y-114553986D01*
X151671272Y-114473662D01*
X151542272Y-114325286D01*
X151438520Y-114165437D01*
X151372369Y-114027082D01*
X151355195Y-113985480D01*
X151340050Y-113948197D01*
X151326801Y-113913256D01*
X151315311Y-113878680D01*
X151305447Y-113842494D01*
X151297073Y-113802719D01*
X151290055Y-113757380D01*
X151284258Y-113704499D01*
X151279548Y-113642101D01*
X151275789Y-113568208D01*
X151272846Y-113480843D01*
X151270586Y-113378031D01*
X151268872Y-113257793D01*
X151267571Y-113118154D01*
X151266547Y-112957137D01*
X151265666Y-112772765D01*
X151264794Y-112563061D01*
X151264292Y-112441992D01*
X151259064Y-111198214D01*
X151621217Y-111198214D01*
X151983370Y-111198214D01*
X151983370Y-112385862D01*
X151983373Y-112604469D01*
X151983456Y-112796656D01*
X151983728Y-112964352D01*
X151984301Y-113109484D01*
X151985285Y-113233980D01*
X151986792Y-113339770D01*
X151988931Y-113428780D01*
X151991813Y-113502940D01*
X151995549Y-113564177D01*
X152000249Y-113614420D01*
X152006024Y-113655597D01*
X152012986Y-113689636D01*
X152021243Y-113718465D01*
X152030908Y-113744012D01*
X152042090Y-113768207D01*
X152054900Y-113792976D01*
X152065209Y-113812276D01*
X152110034Y-113880123D01*
X152171170Y-113950937D01*
X152240692Y-114016928D01*
X152310673Y-114070306D01*
X152352232Y-114094345D01*
X152381310Y-114108310D01*
X152408822Y-114120583D01*
X152436704Y-114131266D01*
X152466891Y-114140462D01*
X152501320Y-114148273D01*
X152541926Y-114154801D01*
X152590645Y-114160148D01*
X152649413Y-114164415D01*
X152720167Y-114167706D01*
X152804841Y-114170122D01*
X152905372Y-114171766D01*
X153023696Y-114172738D01*
X153161748Y-114173143D01*
X153321465Y-114173081D01*
X153504782Y-114172654D01*
X153713636Y-114171966D01*
X153817034Y-114171596D01*
X154995368Y-114167343D01*
X155079269Y-114135563D01*
X155210562Y-114071927D01*
X155321842Y-113988362D01*
X155412466Y-113885555D01*
X155481793Y-113764195D01*
X155518229Y-113665480D01*
X155523104Y-113646173D01*
X155527247Y-113622181D01*
X155530715Y-113591215D01*
X155533566Y-113550985D01*
X155535857Y-113499202D01*
X155537645Y-113433576D01*
X155538989Y-113351819D01*
X155539945Y-113251640D01*
X155540571Y-113130751D01*
X155540925Y-112986862D01*
X155541063Y-112817682D01*
X155541071Y-112754794D01*
X155541071Y-111921094D01*
X154612667Y-111921094D01*
X153684263Y-111921094D01*
X153684263Y-112551842D01*
X153684263Y-113182589D01*
X153329911Y-113182589D01*
X152975558Y-113182589D01*
X152975558Y-112190402D01*
X152975558Y-111198214D01*
X154332729Y-111197111D01*
X155689899Y-111196007D01*
X155300112Y-111063984D01*
X155175710Y-111021824D01*
X155035295Y-110974193D01*
X154880852Y-110921768D01*
X154714364Y-110865223D01*
X154537816Y-110805234D01*
X154353190Y-110742477D01*
X154162472Y-110677628D01*
X153967645Y-110611360D01*
X153770693Y-110544352D01*
X153573600Y-110477276D01*
X153378351Y-110410810D01*
X153186928Y-110345629D01*
X153001316Y-110282408D01*
X152823498Y-110221823D01*
X152655460Y-110164549D01*
X152499185Y-110111262D01*
X152356656Y-110062638D01*
X152229857Y-110019351D01*
X152120774Y-109982077D01*
X152031389Y-109951493D01*
X151963686Y-109928272D01*
X151919650Y-109913092D01*
X151905413Y-109908124D01*
X151775513Y-109854819D01*
X151664640Y-109791916D01*
X151563760Y-109713864D01*
X151514948Y-109668117D01*
X151399544Y-109536162D01*
X151309777Y-109393318D01*
X151245215Y-109238511D01*
X151205422Y-109070667D01*
X151189966Y-108888713D01*
X151189720Y-108862285D01*
X151194859Y-108727266D01*
X151211906Y-108608742D01*
X151243032Y-108496585D01*
X151290410Y-108380665D01*
X151295178Y-108370480D01*
X151379192Y-108218689D01*
X151476568Y-108090441D01*
X151576784Y-107994600D01*
X151592751Y-107981322D01*
X151606625Y-107969327D01*
X151619429Y-107958249D01*
X151632184Y-107947722D01*
X151645912Y-107937381D01*
X151661634Y-107926859D01*
X151680372Y-107915792D01*
X151703148Y-107903813D01*
X151730983Y-107890556D01*
X151764899Y-107875657D01*
X151805918Y-107858748D01*
X151855061Y-107839464D01*
X151913351Y-107817441D01*
X151981808Y-107792310D01*
X152061454Y-107763708D01*
X152153311Y-107731269D01*
X152258401Y-107694625D01*
X152377745Y-107653413D01*
X152512366Y-107607266D01*
X152663283Y-107555818D01*
X152831521Y-107498703D01*
X153018099Y-107435556D01*
X153224040Y-107366012D01*
X153450365Y-107289703D01*
X153698096Y-107206265D01*
X153968254Y-107115332D01*
X154261862Y-107016538D01*
X154579941Y-106909517D01*
X154923512Y-106793904D01*
X155043830Y-106753409D01*
X155220872Y-106693864D01*
X155390267Y-106636976D01*
X155550084Y-106583388D01*
X155698393Y-106533743D01*
X155833266Y-106488684D01*
X155952770Y-106448856D01*
X156054977Y-106414901D01*
X156137956Y-106387462D01*
X156199777Y-106367184D01*
X156238510Y-106354708D01*
X156252173Y-106350670D01*
X156253821Y-106364527D01*
G37*
%TO.C,IC1*%
X165340000Y-115225000D02*
X165340000Y-89705000D01*
X165340000Y-89705000D02*
X160040000Y-89705000D01*
X163690000Y-115225000D02*
X165340000Y-115225000D01*
X160040000Y-115225000D02*
X161690000Y-115225000D01*
X160040000Y-89705000D02*
X160040000Y-115225000D01*
X163690000Y-115225000D02*
G75*
G03*
X161690000Y-115225000I-1000000J0D01*
G01*
%TO.C,R2*%
X109440000Y-116695000D02*
X113090000Y-116695000D01*
X113090000Y-114775000D02*
X113090000Y-118615000D01*
X113090000Y-118615000D02*
X123230000Y-118615000D01*
X123230000Y-114775000D02*
X113090000Y-114775000D01*
X123230000Y-118615000D02*
X123230000Y-114775000D01*
X126880000Y-116695000D02*
X123230000Y-116695000D01*
%TO.C,R1*%
X133250000Y-92015000D02*
X133250000Y-92965000D01*
X134170000Y-92965000D02*
X132330000Y-92965000D01*
X132330000Y-92965000D02*
X132330000Y-96805000D01*
X134170000Y-96805000D02*
X134170000Y-92965000D01*
X132330000Y-96805000D02*
X134170000Y-96805000D01*
X133250000Y-97755000D02*
X133250000Y-96805000D01*
%TO.C,IC2*%
X147540000Y-115225000D02*
X147540000Y-89705000D01*
X147540000Y-89705000D02*
X142240000Y-89705000D01*
X145890000Y-115225000D02*
X147540000Y-115225000D01*
X142240000Y-115225000D02*
X143890000Y-115225000D01*
X142240000Y-89705000D02*
X142240000Y-115225000D01*
X145890000Y-115225000D02*
G75*
G03*
X143890000Y-115225000I-1000000J0D01*
G01*
%TO.C,C2*%
X153700000Y-100460000D02*
X153700000Y-99770000D01*
X152280000Y-99770000D02*
X155120000Y-99770000D01*
X155120000Y-99770000D02*
X155120000Y-95730000D01*
X152280000Y-95730000D02*
X152280000Y-99770000D01*
X155120000Y-95730000D02*
X152280000Y-95730000D01*
X153700000Y-95040000D02*
X153700000Y-95730000D01*
%TO.C,C1*%
X174267380Y-114856000D02*
X174897380Y-114856000D01*
X174582380Y-114541000D02*
X174582380Y-115171000D01*
X177767621Y-113465000D02*
X177767621Y-119925000D01*
X177807621Y-113465000D02*
X177807621Y-119925000D01*
X177847621Y-113465000D02*
X177847621Y-119925000D01*
X177887621Y-113467000D02*
X177887621Y-119923000D01*
X177927621Y-113468000D02*
X177927621Y-119922000D01*
X177967621Y-113471000D02*
X177967621Y-119919000D01*
X178007621Y-113473000D02*
X178007621Y-115655000D01*
X178007621Y-117735000D02*
X178007621Y-119917000D01*
X178047621Y-113477000D02*
X178047621Y-115655000D01*
X178047621Y-117735000D02*
X178047621Y-119913000D01*
X178087621Y-113480000D02*
X178087621Y-115655000D01*
X178087621Y-117735000D02*
X178087621Y-119910000D01*
X178127621Y-113484000D02*
X178127621Y-115655000D01*
X178127621Y-117735000D02*
X178127621Y-119906000D01*
X178167621Y-113489000D02*
X178167621Y-115655000D01*
X178167621Y-117735000D02*
X178167621Y-119901000D01*
X178207621Y-113494000D02*
X178207621Y-115655000D01*
X178207621Y-117735000D02*
X178207621Y-119896000D01*
X178247621Y-113500000D02*
X178247621Y-115655000D01*
X178247621Y-117735000D02*
X178247621Y-119890000D01*
X178287621Y-113506000D02*
X178287621Y-115655000D01*
X178287621Y-117735000D02*
X178287621Y-119884000D01*
X178327621Y-113513000D02*
X178327621Y-115655000D01*
X178327621Y-117735000D02*
X178327621Y-119877000D01*
X178367621Y-113520000D02*
X178367621Y-115655000D01*
X178367621Y-117735000D02*
X178367621Y-119870000D01*
X178407621Y-113528000D02*
X178407621Y-115655000D01*
X178407621Y-117735000D02*
X178407621Y-119862000D01*
X178447621Y-113536000D02*
X178447621Y-115655000D01*
X178447621Y-117735000D02*
X178447621Y-119854000D01*
X178488621Y-113545000D02*
X178488621Y-115655000D01*
X178488621Y-117735000D02*
X178488621Y-119845000D01*
X178528621Y-113554000D02*
X178528621Y-115655000D01*
X178528621Y-117735000D02*
X178528621Y-119836000D01*
X178568621Y-113564000D02*
X178568621Y-115655000D01*
X178568621Y-117735000D02*
X178568621Y-119826000D01*
X178608621Y-113574000D02*
X178608621Y-115655000D01*
X178608621Y-117735000D02*
X178608621Y-119816000D01*
X178648621Y-113585000D02*
X178648621Y-115655000D01*
X178648621Y-117735000D02*
X178648621Y-119805000D01*
X178688621Y-113597000D02*
X178688621Y-115655000D01*
X178688621Y-117735000D02*
X178688621Y-119793000D01*
X178728621Y-113609000D02*
X178728621Y-115655000D01*
X178728621Y-117735000D02*
X178728621Y-119781000D01*
X178768621Y-113621000D02*
X178768621Y-115655000D01*
X178768621Y-117735000D02*
X178768621Y-119769000D01*
X178808621Y-113634000D02*
X178808621Y-115655000D01*
X178808621Y-117735000D02*
X178808621Y-119756000D01*
X178848621Y-113648000D02*
X178848621Y-115655000D01*
X178848621Y-117735000D02*
X178848621Y-119742000D01*
X178888621Y-113662000D02*
X178888621Y-115655000D01*
X178888621Y-117735000D02*
X178888621Y-119728000D01*
X178928621Y-113677000D02*
X178928621Y-115655000D01*
X178928621Y-117735000D02*
X178928621Y-119713000D01*
X178968621Y-113693000D02*
X178968621Y-115655000D01*
X178968621Y-117735000D02*
X178968621Y-119697000D01*
X179008621Y-113709000D02*
X179008621Y-115655000D01*
X179008621Y-117735000D02*
X179008621Y-119681000D01*
X179048621Y-113725000D02*
X179048621Y-115655000D01*
X179048621Y-117735000D02*
X179048621Y-119665000D01*
X179088621Y-113743000D02*
X179088621Y-115655000D01*
X179088621Y-117735000D02*
X179088621Y-119647000D01*
X179128621Y-113761000D02*
X179128621Y-115655000D01*
X179128621Y-117735000D02*
X179128621Y-119629000D01*
X179168621Y-113779000D02*
X179168621Y-115655000D01*
X179168621Y-117735000D02*
X179168621Y-119611000D01*
X179208621Y-113799000D02*
X179208621Y-115655000D01*
X179208621Y-117735000D02*
X179208621Y-119591000D01*
X179248621Y-113819000D02*
X179248621Y-115655000D01*
X179248621Y-117735000D02*
X179248621Y-119571000D01*
X179288621Y-113839000D02*
X179288621Y-115655000D01*
X179288621Y-117735000D02*
X179288621Y-119551000D01*
X179328621Y-113861000D02*
X179328621Y-115655000D01*
X179328621Y-117735000D02*
X179328621Y-119529000D01*
X179368621Y-113883000D02*
X179368621Y-115655000D01*
X179368621Y-117735000D02*
X179368621Y-119507000D01*
X179408621Y-113905000D02*
X179408621Y-115655000D01*
X179408621Y-117735000D02*
X179408621Y-119485000D01*
X179448621Y-113929000D02*
X179448621Y-115655000D01*
X179448621Y-117735000D02*
X179448621Y-119461000D01*
X179488621Y-113953000D02*
X179488621Y-115655000D01*
X179488621Y-117735000D02*
X179488621Y-119437000D01*
X179528621Y-113979000D02*
X179528621Y-115655000D01*
X179528621Y-117735000D02*
X179528621Y-119411000D01*
X179568621Y-114005000D02*
X179568621Y-115655000D01*
X179568621Y-117735000D02*
X179568621Y-119385000D01*
X179608621Y-114031000D02*
X179608621Y-115655000D01*
X179608621Y-117735000D02*
X179608621Y-119359000D01*
X179648621Y-114059000D02*
X179648621Y-115655000D01*
X179648621Y-117735000D02*
X179648621Y-119331000D01*
X179688621Y-114088000D02*
X179688621Y-115655000D01*
X179688621Y-117735000D02*
X179688621Y-119302000D01*
X179728621Y-114117000D02*
X179728621Y-115655000D01*
X179728621Y-117735000D02*
X179728621Y-119273000D01*
X179768621Y-114147000D02*
X179768621Y-115655000D01*
X179768621Y-117735000D02*
X179768621Y-119243000D01*
X179808621Y-114179000D02*
X179808621Y-115655000D01*
X179808621Y-117735000D02*
X179808621Y-119211000D01*
X179848621Y-114211000D02*
X179848621Y-115655000D01*
X179848621Y-117735000D02*
X179848621Y-119179000D01*
X179888621Y-114245000D02*
X179888621Y-115655000D01*
X179888621Y-117735000D02*
X179888621Y-119145000D01*
X179928621Y-114279000D02*
X179928621Y-115655000D01*
X179928621Y-117735000D02*
X179928621Y-119111000D01*
X179968621Y-114315000D02*
X179968621Y-115655000D01*
X179968621Y-117735000D02*
X179968621Y-119075000D01*
X180008621Y-114352000D02*
X180008621Y-115655000D01*
X180008621Y-117735000D02*
X180008621Y-119038000D01*
X180048621Y-114390000D02*
X180048621Y-115655000D01*
X180048621Y-117735000D02*
X180048621Y-119000000D01*
X180088621Y-114430000D02*
X180088621Y-118960000D01*
X180128621Y-114471000D02*
X180128621Y-118919000D01*
X180168621Y-114513000D02*
X180168621Y-118877000D01*
X180208621Y-114558000D02*
X180208621Y-118832000D01*
X180248621Y-114603000D02*
X180248621Y-118787000D01*
X180288621Y-114651000D02*
X180288621Y-118739000D01*
X180328621Y-114700000D02*
X180328621Y-118690000D01*
X180368621Y-114751000D02*
X180368621Y-118639000D01*
X180408621Y-114805000D02*
X180408621Y-118585000D01*
X180448621Y-114861000D02*
X180448621Y-118529000D01*
X180488621Y-114919000D02*
X180488621Y-118471000D01*
X180528621Y-114981000D02*
X180528621Y-118409000D01*
X180568621Y-115045000D02*
X180568621Y-118345000D01*
X180608621Y-115114000D02*
X180608621Y-118276000D01*
X180648621Y-115186000D02*
X180648621Y-118204000D01*
X180688621Y-115263000D02*
X180688621Y-118127000D01*
X180728621Y-115345000D02*
X180728621Y-118045000D01*
X180768621Y-115433000D02*
X180768621Y-117957000D01*
X180808621Y-115530000D02*
X180808621Y-117860000D01*
X180848621Y-115636000D02*
X180848621Y-117754000D01*
X180888621Y-115755000D02*
X180888621Y-117635000D01*
X180928621Y-115893000D02*
X180928621Y-117497000D01*
X180968621Y-116062000D02*
X180968621Y-117328000D01*
X181008621Y-116293000D02*
X181008621Y-117097000D01*
X181037621Y-116695000D02*
G75*
G03*
X181037621Y-116695000I-3270000J0D01*
G01*
%TO.C,TR1*%
X120580000Y-91845000D02*
X120580000Y-107735000D01*
X120580000Y-91845000D02*
X130820000Y-91845000D01*
X120580000Y-107735000D02*
X130820000Y-107735000D01*
X123160000Y-107735000D02*
X123160000Y-110275000D01*
X125700000Y-107735000D02*
X125700000Y-110275000D01*
X128240000Y-107735000D02*
X128240000Y-110275000D01*
X130820000Y-91845000D02*
X130820000Y-107735000D01*
%TO.C,C3*%
X159740000Y-119195000D02*
X160430000Y-119195000D01*
X160430000Y-117775000D02*
X160430000Y-120615000D01*
X160430000Y-120615000D02*
X164470000Y-120615000D01*
X164470000Y-117775000D02*
X160430000Y-117775000D01*
X164470000Y-120615000D02*
X164470000Y-117775000D01*
X165160000Y-119195000D02*
X164470000Y-119195000D01*
%TD*%
M02*
